<svg width="400" height="400" viewBox="0 0 400 400" fill="none" xmlns="http://www.w3.org/2000/svg">
<path d="M200 400C310.457 400 400 310.457 400 200C400 89.5431 310.457 0 200 0C89.5431 0 0 89.5431 0 200C0 310.457 89.5431 400 200 400Z" fill="#FFCE20"/>
<path fill-rule="evenodd" clip-rule="evenodd" d="M225.239 176.872C223.688 176.575 222.105 176.179 220.554 175.684C214.55 173.771 209.238 170.637 204.784 166.216C194.556 167.733 183.636 167.7 174.068 163.708C159.914 157.77 156.879 144.342 165.325 132.068C168.558 127.351 172.517 123.523 177.169 120.257C178.093 119.597 179.347 118.871 180.534 118.113C179.644 113.131 178.687 107.588 178.819 103.266C178.951 98.2512 182.118 89.7722 185.021 85.6481C194.292 72.4842 215.704 68.921 230.749 70.5046C231.442 70.5706 232.102 70.6696 232.728 70.8015C239.789 66.1496 249.06 64.599 256.318 69.7458C262.521 74.1668 264.5 80.9962 266.645 87.8586C267.799 91.5538 269.02 95.2159 270.208 98.9111C272.682 98.7791 275.124 98.6471 277.598 98.5152C280.303 98.3502 282.778 98.0533 285.516 98.2842C290.861 98.7461 295.546 101.386 297.295 106.73C300.858 117.816 288.255 127.186 280.732 133.124C277.4 135.764 273.969 138.271 270.406 140.581C269.977 147.278 267.601 153.58 263.906 159.386C262.356 161.828 260.607 164.071 258.693 166.117L258.858 166.414C259.023 166.677 259.353 167.271 259.617 167.535C260.376 167.832 262.356 168.063 263.114 168.195C266.579 168.855 269.647 169.977 272.682 171.758C282.547 177.565 288.387 195.282 289.706 206.169C294.226 243.418 277.235 278.852 248.532 302.144C218.146 326.823 178.027 335.434 140.185 325.239C130.254 322.567 116.001 317.981 108.842 310.162C102.21 302.903 102.606 293.995 108.842 286.704C118.278 275.651 140.515 268.393 154.635 265.193C171.297 261.432 185.615 253.415 197.064 241.438C196.173 241.207 195.348 240.844 194.523 240.383C189.541 237.446 187.727 231.607 186.836 226.229C186.605 224.942 186.605 223.589 186.473 222.303L185.615 220.752L186.308 217.981C186.308 217.552 186.275 217.09 186.275 216.694V216.463V216.232C186.308 215.539 186.374 214.846 186.44 214.154L185.813 212.339L186.836 210.096C186.869 209.733 186.902 209.403 186.935 209.04L186.968 208.842L187.529 205.609L188.321 201.155L188.914 200.495C189.112 199.802 189.244 199.076 189.442 198.383L189.508 198.152L189.574 197.921C189.706 197.558 189.904 197.162 190.036 196.8L190.069 194.589L191.554 193.005C191.917 192.28 192.214 191.521 192.577 190.795C193.105 189.772 193.83 188.782 194.325 187.793L195.414 185.615L196.338 185.087C197.031 184.262 197.756 183.537 198.581 182.844C201.386 180.501 204.586 179.38 208.281 179.874L208.644 179.94L209.007 180.039C210.788 180.468 211.976 181.095 213.593 181.788L215.143 182.448L215.935 183.306C216.694 183.867 217.519 184.361 218.278 184.988C220.125 186.539 221.544 187.991 222.963 189.574C223.853 185.384 224.579 181.194 225.074 176.938L225.239 176.872Z" fill="#FEFEFE"/>
<path fill-rule="evenodd" clip-rule="evenodd" d="M142.395 317.519C217.882 337.908 290.234 276.411 281.854 207.16C280.963 199.736 276.179 183.108 268.723 178.72C260.409 173.837 256.285 178.06 251.963 170.373C248.565 172.683 244.738 174.398 240.416 175.322C238.073 175.85 235.731 176.147 233.388 176.213L233.289 177.169C232.365 184.857 230.914 192.379 228.901 199.571C231.211 199.505 233.652 200.099 236.159 200.99C236.456 201.089 236.786 201.221 237.083 201.32C237.578 200.858 238.073 200.429 238.634 200C239.294 199.472 239.789 198.944 240.547 198.417C268.393 179.215 276.377 197.163 273.606 218.707C272.781 224.712 272.649 226.46 270.472 232.762C269.152 236.589 267.403 240.284 264.929 243.517C263.906 244.837 262.586 246.124 261.201 247.047C256.648 250.017 251.93 248.763 247.806 245.794C243.484 242.659 240.778 239.195 237.248 235.434L237.116 235.302L234.939 232.663C233.454 232.993 231.87 233.092 230.452 233.026L228.274 232.96L228.01 232.927C225.536 232.63 223.424 232.201 221.115 231.244C219.399 232.465 217.552 233.587 216.001 234.642C214.582 235.599 212.867 236.622 210.986 237.546C198.218 254.933 180.171 267.734 156.615 273.078C124.645 280.304 82.7118 301.419 142.461 317.552L142.395 317.519Z" fill="black"/>
<path fill-rule="evenodd" clip-rule="evenodd" d="M258.297 196.437C257.935 196.668 255.526 197.327 254.899 197.591C254.272 197.855 252.227 198.911 251.666 198.944L251.237 199.34C248.829 200.363 246.354 202.309 244.21 203.761C243.616 204.157 243.286 204.586 242.626 205.114C240.943 206.466 239.591 207.786 238.799 210.03L238.073 213.758C239.063 213.296 241.636 212.801 242.89 212.768L246.321 212.537C247.806 212.372 250.346 212.603 251.864 212.999C251.27 213.23 246.783 213.791 246.09 213.692C245.496 214.121 240.383 214.846 239.195 215.044L237.875 215.275L237.644 216.265C237.974 217.057 237.413 218.476 237.71 219.366C238.634 220.026 246.255 223.589 247.311 223.853C244.507 223.556 240.35 221.973 237.677 221.115C237.677 223.16 237.842 226.163 239.096 227.581L241.933 231.046C244.968 234.279 247.443 237.611 251.567 240.613C253.514 241.999 255.592 243.055 257.638 241.702C258.363 241.24 259.221 240.383 259.815 239.624C261.828 237.017 263.279 233.916 264.368 230.716C264.764 229.561 266.117 224.051 266.447 223.622C266.381 222.897 266.612 222.072 266.743 221.313L267.205 217.915L267.502 215.704C267.238 215.143 267.469 212.207 267.502 211.316C267.403 210.458 267.238 209.205 267.436 208.413L267.106 206.565C266.776 204.124 266.315 202.969 266.051 201.254C265.688 200.891 265.589 200.198 265.391 199.736C265.16 199.175 264.929 198.713 264.566 198.218C264.005 197.36 263.246 196.437 261.696 196.173C260.31 196.074 259.452 196.338 258.231 196.437H258.297ZM228.736 226.526L230.683 226.592C231.87 226.658 233.256 226.493 234.312 226.13C235.896 225.602 236.028 225.569 235.83 223.952C235.599 221.643 235.665 218.674 235.896 216.265L236.258 213.197C236.357 212.603 236.456 212.042 236.555 211.448C236.654 210.986 236.753 210.227 237.05 209.832C236.951 208.974 238.007 208.479 234.015 207.093C230.485 205.872 227.779 205.015 225.767 208.116C223.457 211.679 221.61 217.651 221.544 221.94C221.511 224.15 221.577 224.414 223.589 225.272C225.305 225.998 226.823 226.262 228.736 226.493V226.526ZM201.682 191.356C201.155 192.379 200.429 193.368 199.868 194.49C199.472 195.216 198.581 197.36 198.218 197.789C198.185 198.647 197.558 199.934 197.261 200.726C196.965 201.715 196.503 204.124 196.008 204.718L195.612 206.961L195.084 210.161C194.952 210.986 194.985 211.976 194.655 212.702C194.82 213.131 194.556 215.935 194.523 216.628C194.523 217.519 194.622 218.74 194.391 219.63C194.622 220.026 194.82 223.985 194.952 224.909C195.381 227.548 196.338 232.002 198.812 233.454C201.946 235.302 209.832 231.046 212.405 229.297C214.253 228.043 218.443 225.569 219.795 223.952C219.465 222.204 219.531 220.884 219.828 219.003C217.915 219.135 216.364 219.366 214.253 219.366C212.405 219.366 210.326 219.201 208.578 219.201C210.26 219.069 219.069 217.948 220.026 217.387L221.544 212.339L211.745 205.444C215.011 206.169 219.201 209.304 222.369 210.59C223.754 206.862 225.14 207.258 224.48 205.675C223.424 203.068 221.016 199.142 219.267 197.129C217.024 194.589 216.232 193.467 213.395 191.059C212.801 190.531 211.118 189.508 210.689 189.046C209.634 188.584 208.71 188.057 207.456 187.76C205.839 187.529 204.85 188.255 204.025 188.914C203.53 189.31 203.2 189.673 202.804 190.135C202.54 190.465 202.21 191.059 201.814 191.29L201.682 191.356Z" fill="black"/>
<path fill-rule="evenodd" clip-rule="evenodd" d="M191.356 136.654L191.554 136.687L191.752 136.72L191.917 136.753H191.95L192.148 136.786L192.346 136.819H192.478H192.544L192.742 136.852L192.94 136.885L193.138 136.918L193.336 136.951L193.534 136.984H193.6H193.699L193.897 137.017L194.095 137.05H194.128H194.26L194.424 137.083L194.589 137.116H194.754H194.919H195.084H195.249H195.414L195.744 137.149H195.909H196.008H196.074H196.239H196.404H196.47H196.569H196.734H196.899H196.932H197.031H197.196H197.361H197.526H197.691H197.823H197.988H198.12H198.252H198.285H198.417H198.549H198.647H198.68H198.812H199.109H199.241H199.373H199.406H199.505H199.637C200.099 137.182 200.528 137.182 200.957 137.182H201.089H201.221H201.287H201.353H201.485C206.467 137.215 210.096 136.423 217.948 134.675C230.221 131.969 244.54 124.183 255.065 117.717C258.892 115.374 262.224 112.636 265.655 110.524L268.393 119.003L268.163 119.234L268.13 119.267L268.097 119.3L267.833 119.531L267.569 119.762L267.503 119.828L267.47 119.861L267.272 120.026L267.173 120.125L267.14 120.158L267.074 120.224L266.975 120.323L266.777 120.488L266.645 120.587L266.513 120.686L266.381 120.785L266.315 120.818L266.249 120.884L266.117 120.983L265.985 121.082L265.853 121.181L265.721 121.28L265.589 121.379L265.457 121.478L265.325 121.577L265.193 121.676L265.061 121.775L264.929 121.874H264.896L264.764 121.973L264.632 122.072L264.5 122.171L264.401 122.237L264.368 122.27L264.236 122.369L264.071 122.467L263.906 122.566L263.874 122.599L263.775 122.665L263.61 122.764L263.445 122.863L263.313 122.962H263.28L263.115 123.061L262.95 123.16L262.785 123.259L262.719 123.292L262.62 123.358L262.455 123.457L262.29 123.556L262.125 123.655L261.96 123.754L261.795 123.853L261.63 123.952L261.531 124.018L261.465 124.051L261.3 124.15L261.135 124.249L260.97 124.381H260.937L260.772 124.48L260.607 124.579L260.442 124.711L260.31 124.81L260.244 124.843L259.881 125.074L259.683 125.206C249.522 131.672 234.609 139.822 229.759 142.032C223.623 144.836 212.768 149.686 203.86 149.818H203.827H203.563H203.398H203.233H202.969H202.936H202.772H202.607H202.442H202.277H202.112H201.947H201.815L201.485 149.785L201.254 149.752H201.221H201.089H200.957L200.825 149.719L200.693 149.686L200.429 149.653L200.297 149.62L199.967 149.554L199.835 149.521H199.769L199.373 149.455L199.241 149.422L198.878 149.323H198.812L198.746 149.29L198.351 149.191C198.186 149.158 198.054 149.092 197.889 149.059H197.856H197.823C197.526 148.96 197.229 148.828 196.932 148.729H196.899H196.866C196.734 148.663 196.569 148.597 196.437 148.532C196.305 148.466 196.173 148.4 196.008 148.334H195.975L195.942 148.301C195.81 148.235 195.711 148.169 195.579 148.103L195.546 148.07H195.513C195.381 148.004 195.249 147.905 195.117 147.806C191.686 145.562 192.445 142.989 191.455 136.39L191.356 136.654ZM262.389 136.225C262.917 142.527 261.201 148.828 257.176 155.097C252.392 162.586 246.322 167.073 238.931 168.723C233.421 169.944 228.143 169.68 222.963 168.063C217.882 166.446 213.461 163.741 209.799 159.947C209.073 159.188 208.413 158.396 207.786 157.604C196.734 159.749 185.879 160.013 177.136 156.384C167.173 152.194 166.744 144.242 171.924 136.72C178.192 127.614 186.143 124.645 189.311 121.841C188.618 117.585 186.737 107.192 186.836 103.563C186.935 99.7027 189.97 92.6424 191.587 90.3659C198.911 79.9733 217.75 77.3009 229.924 78.5876C233.916 79.0165 233.586 80.0063 236.985 77.7298C241.901 74.4306 247.608 73.5068 251.666 76.4101C255.691 79.2804 257.176 84.5922 258.991 90.3989C260.739 96.0076 262.653 101.616 264.434 107.291C268.921 107.192 273.507 106.928 278.06 106.664C282.019 106.433 288.387 105.311 289.674 109.304C291.587 115.176 279.941 123.655 275.784 126.921C271.264 130.485 266.909 133.52 262.356 136.291L262.389 136.225Z" fill="black"/>
</svg>
