<svg width="400" height="400" viewBox="0 0 400 400" fill="none" xmlns="http://www.w3.org/2000/svg">
<g clip-path="url(#clip0_2220_40)">
<path d="M200.014 400.027C310.478 400.027 400.027 310.478 400.027 200.014C400.027 89.5491 310.478 0 200.014 0C89.5491 0 0 89.5491 0 200.014C0 310.478 89.5491 400.027 200.014 400.027Z" fill="#FFCE20"/>
<path fill-rule="evenodd" clip-rule="evenodd" d="M224.189 178.847C222.617 178.549 221.072 178.169 219.5 177.681C213.51 175.784 208.198 172.613 203.726 168.223C193.509 169.74 182.56 169.713 173.02 165.729C158.845 159.794 155.837 146.351 164.293 134.101C167.545 129.385 171.475 125.564 176.164 122.285C177.085 121.634 178.332 120.902 179.551 120.144C178.657 115.157 177.708 109.601 177.817 105.292C177.952 100.278 181.123 91.7948 184.023 87.6481C193.292 74.4765 214.703 70.9261 229.744 72.4981C230.449 72.5794 231.1 72.6878 231.75 72.7962C238.824 68.1346 248.093 66.5898 255.329 71.7392C261.535 76.1568 263.514 82.9866 265.682 89.8705C266.847 93.5564 268.067 97.2423 269.259 100.928C271.726 100.82 274.192 100.684 276.658 100.549C279.368 100.386 281.835 100.088 284.572 100.305C289.911 100.766 294.6 103.394 296.334 108.734C299.912 119.818 287.309 129.196 279.775 135.131C276.441 137.76 272.999 140.253 269.449 142.584C269.015 149.278 266.658 155.593 262.945 161.393C261.373 163.832 259.638 166.082 257.741 168.114L257.904 168.412C258.066 168.683 258.419 169.28 258.662 169.551C259.421 169.822 261.4 170.066 262.159 170.201C265.628 170.879 268.69 171.99 271.726 173.779C281.564 179.579 287.445 197.303 288.773 208.171C293.299 245.437 276.306 280.859 247.578 304.167C217.169 328.83 177.085 337.475 139.251 327.258C129.331 324.575 115.048 319.995 107.921 312.162C101.308 304.899 101.687 296.009 107.921 288.692C117.352 277.634 139.576 270.371 153.723 267.173C170.391 263.405 184.701 255.41 196.138 243.404C195.271 243.16 194.403 242.808 193.617 242.347C188.631 239.393 186.815 233.566 185.92 228.2C185.704 226.899 185.676 225.571 185.568 224.27L184.701 222.725L185.405 219.961C185.405 219.554 185.378 219.093 185.378 218.687V218.443V218.199C185.405 217.521 185.487 216.79 185.541 216.112L184.89 214.296L185.92 212.047C185.947 211.694 185.975 211.342 186.029 210.99L186.056 210.773L186.598 207.548L187.384 203.076L187.953 202.398C188.143 201.694 188.278 200.962 188.495 200.285L188.576 200.068L188.658 199.851C188.793 199.471 188.983 199.092 189.118 198.713L189.173 196.49L190.636 194.918C190.988 194.187 191.287 193.428 191.666 192.723C192.208 191.693 192.913 190.717 193.428 189.715L194.512 187.519L195.433 187.004C196.111 186.191 196.843 185.46 197.656 184.755C200.447 182.397 203.645 181.286 207.331 181.801L207.71 181.855L208.09 181.936C209.852 182.343 211.071 182.993 212.67 183.671L214.215 184.348L215.001 185.216C215.76 185.785 216.573 186.273 217.332 186.896C219.175 188.441 220.584 189.877 222.02 191.476C222.915 187.303 223.646 183.075 224.134 178.82L224.189 178.847Z" fill="#282829"/>
<path fill-rule="evenodd" clip-rule="evenodd" d="M141.365 319.48C216.844 339.861 289.207 278.366 280.805 209.147C279.911 201.721 275.141 185.108 267.66 180.717C259.367 175.839 255.22 180.067 250.884 172.37C247.496 174.7 243.648 176.381 239.366 177.329C237.008 177.844 234.677 178.142 232.346 178.224L232.238 179.199C231.316 186.896 229.853 194.404 227.847 201.613C230.151 201.559 232.59 202.155 235.111 203.022C235.409 203.131 235.734 203.239 236.032 203.347C236.52 202.887 237.035 202.453 237.577 202.019C238.255 201.477 238.742 200.935 239.501 200.42C267.335 181.232 275.33 199.174 272.566 220.72C271.726 226.736 271.59 228.471 269.422 234.759C268.094 238.58 266.359 242.293 263.866 245.491C262.863 246.792 261.535 248.093 260.153 249.014C255.6 251.996 250.857 250.722 246.765 247.768C242.455 244.651 239.745 241.182 236.195 237.388L236.059 237.252L233.891 234.623C232.401 234.948 230.829 235.057 229.392 235.003L227.197 234.921L226.926 234.894C224.46 234.596 222.319 234.162 220.042 233.187C218.335 234.406 216.492 235.518 214.92 236.575C213.51 237.55 211.776 238.58 209.906 239.474C197.141 256.847 179.091 269.666 155.512 275.005C123.558 282.242 81.6044 303.354 141.365 319.48Z" fill="white"/>
<path fill-rule="evenodd" clip-rule="evenodd" d="M257.253 198.387C256.901 198.604 254.489 199.282 253.838 199.553C253.215 199.797 251.155 200.854 250.586 200.881L250.152 201.26C247.767 202.29 245.247 204.214 243.133 205.678C242.537 206.084 242.184 206.518 241.561 207.006C239.854 208.361 238.553 209.662 237.74 211.911L237.008 215.651C237.984 215.191 240.585 214.703 241.805 214.649L245.247 214.405C246.738 214.215 249.258 214.486 250.803 214.893C250.207 215.137 245.708 215.706 245.03 215.597C244.434 216.031 239.312 216.763 238.146 216.952L236.818 217.196L236.574 218.172C236.9 218.958 236.33 220.394 236.629 221.289C237.55 221.939 245.166 225.517 246.223 225.761C243.404 225.462 239.257 223.863 236.601 223.023C236.629 225.083 236.791 228.064 238.011 229.501L240.856 232.943C243.892 236.168 246.358 239.501 250.505 242.51C252.429 243.919 254.516 244.949 256.603 243.594C257.335 243.106 258.175 242.293 258.771 241.507C260.777 238.905 262.213 235.815 263.324 232.59C263.731 231.425 265.059 225.923 265.384 225.49C265.33 224.758 265.546 223.945 265.682 223.186L266.17 219.771L266.441 217.576C266.197 217.007 266.414 214.052 266.441 213.185C266.36 212.345 266.17 211.071 266.387 210.285L266.061 208.442C265.736 206.03 265.275 204.838 264.977 203.13C264.625 202.751 264.517 202.073 264.327 201.613C264.083 201.043 263.839 200.61 263.514 200.095C262.945 199.228 262.213 198.306 260.641 198.062C259.232 197.954 258.392 198.225 257.199 198.333L257.253 198.387ZM227.712 228.498L229.663 228.579C230.856 228.633 232.238 228.498 233.295 228.146C234.867 227.604 235.002 227.576 234.813 225.977C234.569 223.647 234.65 220.692 234.867 218.28L235.246 215.191C235.355 214.622 235.436 214.025 235.544 213.456C235.626 212.968 235.734 212.237 236.032 211.83C235.924 210.963 237.008 210.475 232.997 209.093C229.474 207.873 226.763 207.033 224.758 210.123C222.427 213.7 220.611 219.635 220.53 223.945C220.476 226.167 220.584 226.438 222.563 227.278C224.27 228.01 225.788 228.281 227.712 228.498ZM200.637 193.319C200.122 194.349 199.39 195.325 198.821 196.463C198.442 197.195 197.547 199.363 197.168 199.77C197.141 200.637 196.517 201.911 196.192 202.724C195.894 203.699 195.433 206.139 194.918 206.708L194.512 208.957L193.97 212.155C193.861 212.968 193.861 213.971 193.536 214.703C193.699 215.137 193.428 217.955 193.401 218.633C193.401 219.527 193.509 220.747 193.265 221.641C193.482 222.048 193.699 226.004 193.834 226.926C194.268 229.555 195.217 234.027 197.683 235.49C200.827 237.333 208.686 233.078 211.261 231.344C213.104 230.097 217.278 227.604 218.633 226.004C218.28 224.27 218.389 222.942 218.66 221.072C216.763 221.207 215.191 221.424 213.077 221.451C211.234 221.451 209.147 221.289 207.412 221.289C209.12 221.153 217.901 220.015 218.85 219.473L220.367 214.432L210.556 207.548C213.809 208.28 218.036 211.424 221.153 212.67C222.535 208.957 223.945 209.364 223.267 207.738C222.21 205.136 219.798 201.206 218.036 199.2C215.787 196.653 215.028 195.542 212.155 193.13C211.559 192.615 209.879 191.585 209.445 191.124C208.388 190.663 207.494 190.121 206.22 189.823C204.621 189.606 203.618 190.311 202.805 190.989C202.317 191.395 201.992 191.747 201.585 192.235C201.314 192.56 200.989 193.157 200.583 193.401L200.637 193.319Z" fill="white"/>
<path fill-rule="evenodd" clip-rule="evenodd" d="M190.311 138.6L190.528 138.627L190.718 138.654L190.88 138.681H190.907L191.097 138.709L191.287 138.736L191.422 138.763H191.476L191.666 138.79L191.856 138.817L192.046 138.844L192.235 138.871L192.425 138.898H192.506H192.615L192.804 138.925L192.994 138.953H193.021L193.157 138.98L193.346 139.007L193.509 139.034L193.672 139.061L193.834 139.088L193.997 139.115H194.024L194.187 139.142L194.349 139.169L194.674 139.196L194.837 139.224H194.945H195L195.162 139.251L195.325 139.278H195.406H195.487H195.65H195.813H195.867H195.975H196.138H196.301H196.463H196.626H196.761H196.897H197.032H197.141H197.168H197.303H197.439H197.547H197.601H197.737L198.008 139.305H198.144H198.279H198.333H198.415H198.55C199.011 139.332 199.444 139.332 199.878 139.332H200.014H200.149H200.23H200.285H200.42C205.407 139.359 209.011 138.546 216.871 136.839C229.148 134.128 243.458 126.35 253.974 119.9C257.822 117.542 261.129 114.805 264.571 112.718L267.308 121.201L267.064 121.417L267.01 121.472L266.983 121.499L266.712 121.743H266.685L266.414 121.987L266.332 122.041L266.305 122.068L266.088 122.231L265.98 122.312L265.953 122.339L265.872 122.393L265.763 122.474L265.546 122.637H265.519L265.411 122.718L265.303 122.8L265.194 122.881L265.14 122.908L265.059 122.962L264.923 123.044L264.788 123.125L264.652 123.206L264.517 123.288L264.381 123.396L264.246 123.504L264.11 123.613L263.975 123.721L263.839 123.83L263.704 123.938L263.676 123.965L263.568 124.046L263.432 124.155L263.297 124.263L263.189 124.344L263.134 124.372L262.999 124.48L262.836 124.588L262.674 124.697L262.619 124.724L262.511 124.805L262.348 124.914L262.186 125.022L262.05 125.103L262.023 125.13L261.861 125.239L261.698 125.347L261.535 125.456L261.454 125.51L261.373 125.564L261.21 125.672L261.047 125.781L260.885 125.889L260.722 125.998L260.56 126.106L260.397 126.215L260.289 126.269L260.207 126.323L260.045 126.431L259.882 126.54L259.719 126.648L259.692 126.675L259.53 126.784L259.34 126.892L259.15 127L259.015 127.082L258.961 127.109L258.608 127.353L258.419 127.461C248.255 133.912 233.349 142.069 228.498 144.292C222.373 147.11 211.505 151.934 202.588 152.07H202.561H202.29H202.128H201.965H201.694H201.667H201.504H201.342H201.179H201.016H200.854H200.691H200.556L200.203 152.043L199.959 152.016H199.932L199.797 151.989L199.661 151.962L199.526 151.934L199.39 151.907L199.119 151.88L198.984 151.853L198.658 151.799L198.523 151.772H198.469L198.089 151.691L197.954 151.663L197.574 151.582L197.52 151.555L197.439 151.528L197.032 151.419H197.005C196.843 151.365 196.707 151.338 196.544 151.284H196.517H196.49C196.192 151.176 195.894 151.067 195.596 150.932H195.569L195.542 150.905C195.406 150.85 195.244 150.769 195.108 150.715C194.973 150.661 194.837 150.579 194.702 150.498H194.674L194.62 150.471C194.512 150.417 194.376 150.335 194.268 150.281L194.241 150.254L194.214 150.227C194.078 150.146 193.943 150.064 193.807 149.983C190.365 147.734 191.151 145.186 190.148 138.573L190.311 138.6ZM261.346 138.167C261.888 144.481 260.153 150.769 256.142 157.03C251.372 164.51 245.301 169.009 237.902 170.662C232.373 171.882 227.089 171.638 221.939 170.012C216.844 168.385 212.453 165.675 208.795 161.881C208.09 161.122 207.412 160.336 206.789 159.523C195.731 161.691 184.863 161.935 176.164 158.276C166.217 154.103 165.756 146.135 170.933 138.6C177.221 129.494 185.162 126.513 188.333 123.721C187.655 119.466 185.758 109.086 185.839 105.427C185.92 101.579 188.983 94.5051 190.582 92.2285C197.927 81.8213 216.736 79.1924 228.904 80.4391C232.916 80.8456 232.563 81.8755 235.978 79.5718C240.884 76.2654 246.629 75.371 250.667 78.2438C254.706 81.1166 256.169 86.4286 258.012 92.2285C259.774 97.8386 261.671 103.449 263.46 109.113C267.959 109.005 272.539 108.734 277.065 108.49C281.022 108.273 287.391 107.162 288.665 111.146C290.562 117.027 278.908 125.483 274.761 128.762C270.262 132.313 265.872 135.375 261.346 138.139V138.167Z" fill="white"/>
</g>
<defs>
<clipPath id="clip0_2220_40">
<rect width="400" height="400" fill="white"/>
</clipPath>
</defs>
</svg>
