<svg width="139" height="150" viewBox="0 0 139 150" fill="none" xmlns="http://www.w3.org/2000/svg">
<path d="M129.593 100.251L132.646 101.48C132.923 101.593 133.169 101.692 133.376 101.776C133.589 101.86 133.766 101.934 133.904 101.988C134.087 102.062 134.284 102.126 134.496 102.186C134.708 102.245 134.916 102.264 135.118 102.255C135.32 102.245 135.507 102.171 135.68 102.047C135.853 101.924 136.001 101.717 136.119 101.421C136.233 101.14 136.272 100.873 136.233 100.631C136.193 100.39 136.104 100.168 135.966 99.9653C135.823 99.763 135.646 99.5854 135.424 99.4325C135.202 99.2795 134.965 99.1512 134.713 99.0476L135.384 98.5937C136.001 98.8404 136.509 99.1808 136.904 99.6101C137.298 100.039 137.55 100.523 137.663 101.061C137.777 101.603 137.713 102.166 137.481 102.753C137.239 103.36 136.918 103.789 136.524 104.041C136.129 104.292 135.685 104.411 135.197 104.391C134.703 104.371 134.195 104.253 133.658 104.041C133.46 103.962 133.194 103.853 132.868 103.72C132.538 103.587 132.153 103.434 131.709 103.256L128.853 102.107L129.598 100.261L129.593 100.251ZM131.472 95.5742L138.995 98.5986L138.245 100.464L130.723 97.4392L131.472 95.5742ZM127.723 104.899L130.772 106.123C131.068 106.241 131.324 106.345 131.532 106.429C131.739 106.513 131.916 106.582 132.054 106.641C132.252 106.72 132.454 106.789 132.666 106.848C132.878 106.907 133.08 106.927 133.273 106.912C133.47 106.897 133.653 106.823 133.82 106.695C133.993 106.567 134.136 106.355 134.255 106.064C134.368 105.777 134.412 105.511 134.378 105.269C134.343 105.027 134.255 104.81 134.116 104.613C133.973 104.421 133.796 104.248 133.584 104.1C133.372 103.952 133.145 103.829 132.908 103.73L133.569 103.276C134.171 103.518 134.664 103.848 135.054 104.268C135.443 104.687 135.695 105.166 135.803 105.703C135.912 106.241 135.848 106.804 135.616 107.391C135.379 107.983 135.068 108.407 134.684 108.669C134.299 108.93 133.865 109.058 133.381 109.053C132.898 109.048 132.39 108.94 131.857 108.723C131.65 108.639 131.384 108.53 131.063 108.402C130.742 108.274 130.362 108.121 129.923 107.943L126.983 106.759L127.733 104.894L127.723 104.899Z" fill="black"/>
<path d="M126.006 108.461L133.026 112.522L132.02 114.264L129.686 112.917L130.145 112.645C130.421 112.867 130.663 113.114 130.865 113.39C131.068 113.667 131.216 113.963 131.304 114.278C131.393 114.594 131.418 114.925 131.369 115.275C131.319 115.625 131.191 115.981 130.984 116.341C130.816 116.627 130.663 116.839 130.53 116.982C130.392 117.125 130.303 117.204 130.254 117.229L128.843 115.99C128.897 115.966 128.991 115.897 129.114 115.793C129.238 115.685 129.366 115.517 129.494 115.295C129.701 114.94 129.815 114.604 129.829 114.293C129.849 113.982 129.795 113.701 129.672 113.44C129.548 113.178 129.381 112.946 129.173 112.744C128.966 112.542 128.739 112.369 128.498 112.231L125.01 110.213L126.016 108.476L126.006 108.461Z" fill="black"/>
<path d="M122.351 114.086C122.524 113.819 122.756 113.652 123.062 113.588C123.363 113.523 123.649 113.573 123.915 113.745C124.177 113.913 124.339 114.15 124.408 114.451C124.477 114.757 124.423 115.038 124.251 115.3C124.088 115.566 123.851 115.729 123.545 115.793C123.239 115.862 122.958 115.813 122.697 115.645C122.43 115.472 122.267 115.235 122.203 114.93C122.139 114.624 122.189 114.342 122.356 114.081L122.351 114.086Z" fill="black"/>
<path d="M115.115 122.986C115.554 122.533 116.077 122.227 116.683 122.064C117.29 121.901 117.916 121.901 118.558 122.059C119.194 122.217 119.771 122.542 120.284 123.036C120.299 123.051 120.314 123.06 120.324 123.075C120.339 123.085 120.348 123.1 120.358 123.11L119.687 123.84C119.682 123.835 119.673 123.825 119.658 123.815C119.648 123.805 119.638 123.796 119.628 123.791C119.342 123.514 119.017 123.342 118.656 123.273C118.296 123.204 117.946 123.218 117.596 123.327C117.251 123.435 116.95 123.618 116.703 123.879C116.298 124.304 116.096 124.802 116.101 125.379C116.106 125.957 116.412 126.534 117.024 127.121C117.635 127.708 118.227 127.994 118.795 127.97C119.362 127.945 119.85 127.723 120.26 127.294C120.506 127.037 120.679 126.736 120.778 126.386C120.876 126.041 120.886 125.685 120.807 125.335C120.728 124.98 120.546 124.669 120.255 124.388L120.975 123.702C121.493 124.2 121.838 124.758 122.011 125.379C122.183 126.001 122.198 126.613 122.05 127.215C121.902 127.822 121.616 128.35 121.177 128.803C120.723 129.277 120.181 129.608 119.554 129.795C118.933 129.983 118.277 129.988 117.586 129.81C116.9 129.632 116.229 129.238 115.583 128.616C114.922 127.979 114.478 127.318 114.256 126.638C114.039 125.957 114.005 125.295 114.163 124.664C114.32 124.032 114.636 123.475 115.105 122.986H115.115ZM118.395 119.809L127.003 128.068L125.607 129.524L116.999 121.265L118.395 119.809Z" fill="black"/>
<path d="M109.037 128.409C109.511 128.029 109.984 127.772 110.463 127.634C110.941 127.496 111.395 127.491 111.824 127.61C112.254 127.728 112.624 127.989 112.944 128.384C113.289 128.818 113.457 129.267 113.447 129.736C113.433 130.205 113.289 130.678 113.008 131.152C112.727 131.626 112.362 132.08 111.908 132.519C111.242 133.17 110.788 133.639 110.557 133.935C110.32 134.231 110.261 134.453 110.379 134.601C110.384 134.606 110.384 134.606 110.384 134.611L110.389 134.616C110.611 134.892 110.907 135.01 111.282 134.961C111.652 134.912 112.066 134.704 112.525 134.339C113.008 133.954 113.309 133.575 113.428 133.2C113.551 132.825 113.462 132.46 113.171 132.089L114.72 130.851C115.12 131.349 115.322 131.872 115.332 132.43C115.342 132.987 115.189 133.535 114.868 134.083C114.547 134.63 114.098 135.139 113.511 135.607C112.969 136.041 112.402 136.362 111.819 136.56C111.237 136.757 110.68 136.806 110.142 136.693C109.605 136.584 109.136 136.278 108.741 135.785C108.672 135.701 108.608 135.617 108.539 135.533C108.475 135.449 108.406 135.366 108.337 135.282L106.428 132.894C106.304 132.741 106.181 132.598 106.058 132.46C105.93 132.321 105.811 132.208 105.683 132.119C105.54 132.025 105.407 131.956 105.283 131.912C105.16 131.867 105.066 131.843 105.007 131.838L106.556 130.599C106.605 130.604 106.689 130.629 106.803 130.669C106.916 130.713 107.039 130.772 107.163 130.846C107.296 130.935 107.429 131.039 107.557 131.157C107.686 131.28 107.819 131.423 107.952 131.591L107.469 131.626C107.395 131.285 107.404 130.93 107.508 130.55C107.607 130.175 107.789 129.8 108.046 129.435C108.302 129.065 108.633 128.72 109.032 128.404L109.037 128.409ZM109.644 129.948C109.318 130.21 109.062 130.506 108.87 130.841C108.682 131.177 108.593 131.527 108.608 131.897C108.623 132.267 108.776 132.637 109.072 133.002L109.748 133.851L109.022 133.728C109.2 133.427 109.442 133.106 109.753 132.756C110.063 132.405 110.384 132.07 110.724 131.744C111.158 131.325 111.449 130.96 111.588 130.654C111.731 130.348 111.691 130.057 111.474 129.785C111.262 129.524 111.006 129.405 110.705 129.435C110.399 129.465 110.049 129.637 109.649 129.958L109.644 129.948Z" fill="black"/>
<path d="M98.6435 135.178L100.247 138.4C100.336 138.582 100.419 138.74 100.488 138.878C100.558 139.016 100.622 139.145 100.676 139.258C100.839 139.589 101.031 139.86 101.258 140.077C101.48 140.294 101.741 140.418 102.042 140.457C102.343 140.496 102.693 140.413 103.088 140.215C103.433 140.043 103.7 139.806 103.887 139.51C104.07 139.209 104.168 138.878 104.178 138.513C104.188 138.148 104.094 137.773 103.907 137.398L104.701 137.472C105.002 138.079 105.135 138.686 105.096 139.298C105.056 139.904 104.869 140.462 104.538 140.96C104.208 141.459 103.759 141.853 103.197 142.134C102.615 142.426 102.067 142.554 101.554 142.529C101.046 142.5 100.582 142.327 100.173 142.006C99.7633 141.686 99.4131 141.246 99.1319 140.684C99.0234 140.467 98.9 140.22 98.7619 139.944C98.6238 139.673 98.4906 139.406 98.3624 139.14L96.843 136.091L98.6485 135.193L98.6435 135.178ZM103.774 132.622L107.39 139.88L105.594 140.778L101.978 133.52L103.774 132.627V132.622Z" fill="black"/>
<path d="M92.4381 137.734C93.0103 137.541 93.548 137.462 94.0413 137.492C94.5346 137.526 94.9637 137.674 95.3288 137.936C95.6889 138.197 95.9503 138.567 96.1131 139.046C96.2907 139.574 96.2956 140.053 96.123 140.487C95.9503 140.926 95.6494 141.316 95.2252 141.666C94.8009 142.016 94.3027 142.317 93.7256 142.569C92.8771 142.954 92.2901 143.245 91.9694 143.442C91.6488 143.639 91.5156 143.827 91.5748 144.005C91.5748 144.009 91.5797 144.014 91.5797 144.014C91.6932 144.35 91.9349 144.562 92.2999 144.641C92.665 144.72 93.1237 144.671 93.6812 144.483C94.2632 144.286 94.6776 144.034 94.9193 143.723C95.161 143.412 95.2054 143.038 95.0574 142.593L96.9369 141.957C97.1391 142.559 97.1539 143.126 96.9764 143.649C96.7988 144.177 96.4633 144.641 95.975 145.046C95.4866 145.45 94.8947 145.776 94.1843 146.013C93.5233 146.235 92.887 146.343 92.2703 146.328C91.6537 146.318 91.1111 146.166 90.6425 145.879C90.1738 145.593 89.8384 145.149 89.6362 144.552C89.6016 144.449 89.5671 144.35 89.5326 144.246C89.498 144.143 89.4635 144.044 89.429 143.94L88.4523 141.049C88.3881 140.867 88.324 140.689 88.2549 140.516C88.1859 140.344 88.102 140.196 88.0182 140.072C87.9195 139.934 87.8159 139.826 87.7123 139.742C87.6087 139.658 87.5298 139.604 87.4805 139.579L89.3599 138.942C89.4043 138.967 89.4734 139.016 89.5671 139.09C89.6608 139.169 89.7545 139.268 89.8483 139.382C89.9469 139.51 90.0357 139.653 90.1146 139.811C90.1936 139.969 90.2676 140.151 90.3366 140.353L89.8729 140.22C89.9173 139.875 90.0505 139.544 90.2725 139.224C90.4945 138.903 90.7905 138.617 91.1604 138.355C91.5304 138.099 91.9546 137.887 92.4331 137.724L92.4381 137.734ZM92.4825 139.386C92.0878 139.52 91.7425 139.712 91.4515 139.959C91.1604 140.21 90.9582 140.506 90.8447 140.862C90.7313 141.212 90.751 141.612 90.9039 142.056L91.2492 143.082L90.6129 142.717C90.8842 142.495 91.2196 142.278 91.6291 142.056C92.0385 141.834 92.4578 141.626 92.887 141.434C93.4394 141.187 93.8291 140.946 94.0709 140.704C94.3076 140.462 94.3718 140.176 94.2583 139.85C94.1498 139.534 93.9475 139.332 93.6565 139.258C93.3605 139.179 92.9708 139.224 92.4874 139.386H92.4825Z" fill="black"/>
<path d="M80.4608 141.029L81.1169 144.567C81.1564 144.769 81.186 144.942 81.2156 145.095C81.2452 145.248 81.2698 145.386 81.2945 145.514C81.3635 145.874 81.4721 146.19 81.6299 146.457C81.7878 146.723 82.0048 146.92 82.2811 147.039C82.5573 147.157 82.9174 147.177 83.3515 147.098C83.7314 147.029 84.052 146.871 84.3134 146.634C84.5749 146.397 84.7623 146.101 84.8709 145.756C84.9794 145.406 84.9942 145.026 84.9153 144.611L85.6601 144.902C85.7834 145.568 85.744 146.185 85.5368 146.762C85.3296 147.335 84.9991 147.818 84.5404 148.208C84.0865 148.598 83.5439 148.849 82.9273 148.968C82.286 149.086 81.7237 149.062 81.2402 148.894C80.7568 148.726 80.3622 148.435 80.0514 148.016C79.7455 147.596 79.5334 147.078 79.415 146.457C79.3706 146.215 79.3213 145.943 79.2621 145.647C79.2079 145.346 79.1536 145.05 79.0993 144.759L78.4778 141.409L80.4559 141.039L80.4608 141.029ZM86.0992 139.983L87.579 147.956L85.6059 148.322L84.126 140.348L86.0992 139.983Z" fill="black"/>
<path d="M73.7669 141.533C74.3737 141.513 74.9065 141.592 75.3701 141.765C75.8338 141.942 76.2038 142.204 76.4751 142.559C76.7464 142.909 76.8895 143.343 76.9092 143.852C76.929 144.404 76.7908 144.868 76.4998 145.233C76.2087 145.603 75.8092 145.894 75.3011 146.106C74.793 146.319 74.2257 146.462 73.6042 146.541C72.6817 146.664 72.0355 146.772 71.6705 146.866C71.3054 146.965 71.1278 147.103 71.1328 147.291C71.1328 147.295 71.1328 147.3 71.1328 147.305C71.1426 147.661 71.3153 147.932 71.6409 148.114C71.9664 148.297 72.4252 148.381 73.0073 148.361C73.6239 148.341 74.0876 148.218 74.4132 147.991C74.7338 147.764 74.8867 147.414 74.8719 146.945L76.855 146.881C76.8747 147.517 76.7267 148.06 76.4011 148.514C76.0756 148.963 75.6217 149.313 75.0396 149.56C74.4576 149.807 73.7965 149.945 73.0467 149.97C72.3512 149.994 71.7099 149.91 71.1229 149.718C70.5359 149.53 70.0623 149.23 69.6973 148.815C69.3322 148.406 69.1399 147.883 69.1201 147.251C69.1152 147.143 69.1152 147.039 69.1103 146.93C69.1053 146.822 69.1053 146.718 69.1004 146.61L69.0017 143.561C68.9968 143.368 68.982 143.176 68.9672 142.993C68.9475 142.806 68.9129 142.643 68.8686 142.5C68.8143 142.337 68.7452 142.204 68.6712 142.095C68.5972 141.987 68.538 141.913 68.4937 141.873L70.4767 141.809C70.5112 141.844 70.5655 141.913 70.6296 142.011C70.6987 142.115 70.7579 142.233 70.8121 142.372C70.8664 142.524 70.9108 142.682 70.9404 142.86C70.97 143.033 70.9897 143.23 70.9996 143.442L70.5951 143.181C70.7381 142.865 70.9601 142.584 71.266 142.342C71.5718 142.1 71.9418 141.908 72.366 141.77C72.7952 141.626 73.2638 141.548 73.7669 141.533ZM73.3329 143.131C72.9136 143.146 72.5288 143.23 72.1785 143.383C71.8283 143.536 71.5471 143.768 71.3399 144.069C71.1328 144.375 71.0341 144.759 71.0489 145.228L71.0834 146.309L70.5753 145.776C70.896 145.643 71.2857 145.529 71.7395 145.435C72.1933 145.342 72.657 145.268 73.1207 145.204C73.7176 145.13 74.1665 145.011 74.4625 144.848C74.7585 144.685 74.9015 144.434 74.8917 144.084C74.8818 143.748 74.7437 143.501 74.4872 143.339C74.2257 143.181 73.8409 143.107 73.3279 143.126L73.3329 143.131Z" fill="black"/>
<path d="M64.3105 141.281C64.9123 141.355 65.4303 141.513 65.8595 141.755C66.2936 141.996 66.6142 142.317 66.8312 142.707C67.0434 143.097 67.1223 143.546 67.0631 144.049C66.999 144.602 66.7918 145.036 66.4514 145.356C66.1061 145.677 65.6671 145.904 65.1343 146.037C64.6016 146.17 64.0195 146.225 63.393 146.21C62.4607 146.19 61.8095 146.2 61.4297 146.24C61.0548 146.279 60.8575 146.393 60.8328 146.58C60.8328 146.585 60.8328 146.59 60.8328 146.595C60.7884 146.95 60.9167 147.241 61.2126 147.473C61.5086 147.705 61.9477 147.853 62.5297 147.922C63.1414 147.996 63.6199 147.947 63.9751 147.769C64.3253 147.591 64.5276 147.271 64.5868 146.807L66.5599 147.044C66.4859 147.675 66.2541 148.193 65.8644 148.588C65.4747 148.983 64.9715 149.259 64.3599 149.417C63.7482 149.575 63.0724 149.609 62.3275 149.521C61.6369 149.437 61.0153 149.259 60.4628 148.983C59.9104 148.706 59.4861 148.336 59.1901 147.878C58.8942 147.414 58.7807 146.871 58.8547 146.244C58.8695 146.136 58.8794 146.032 58.8942 145.924C58.909 145.815 58.9188 145.712 58.9336 145.603L59.2987 142.574C59.3233 142.381 59.3381 142.189 59.348 142.006C59.3579 141.819 59.348 141.651 59.3283 141.503C59.2987 141.335 59.2543 141.192 59.1951 141.074C59.1359 140.955 59.0915 140.872 59.057 140.827L61.0301 141.064C61.0597 141.103 61.0992 141.177 61.1535 141.291C61.2028 141.404 61.2472 141.533 61.2817 141.676C61.3162 141.834 61.331 142.001 61.336 142.179C61.3409 142.357 61.331 142.554 61.3064 142.766L60.9463 142.445C61.1337 142.154 61.3952 141.913 61.7355 141.72C62.0759 141.528 62.4656 141.395 62.9096 141.321C63.3535 141.247 63.8271 141.237 64.3303 141.301L64.3105 141.281ZM63.6396 142.791C63.2253 142.741 62.8306 142.766 62.4607 142.865C62.0907 142.963 61.7799 143.146 61.5234 143.417C61.2718 143.689 61.114 144.054 61.0597 144.523L60.9315 145.598L60.5122 144.996C60.8525 144.912 61.2521 144.863 61.7158 144.838C62.1795 144.814 62.6481 144.809 63.1168 144.819C63.7186 144.833 64.1773 144.784 64.498 144.671C64.8186 144.557 64.9962 144.325 65.0357 143.98C65.0751 143.644 64.9814 143.383 64.7446 143.186C64.5128 142.988 64.1428 142.86 63.6347 142.796L63.6396 142.791Z" fill="black"/>
<path d="M55.007 139.594C55.5891 139.756 56.0775 139.993 56.4672 140.299C56.8569 140.605 57.1282 140.97 57.2811 141.39C57.434 141.809 57.4439 142.263 57.3058 142.751C57.1578 143.284 56.8914 143.684 56.5017 143.95C56.112 144.217 55.6434 144.37 55.0958 144.424C54.5483 144.473 53.9662 144.439 53.3496 144.325C52.4321 144.162 51.7858 144.074 51.406 144.059C51.0262 144.039 50.8141 144.123 50.7647 144.301C50.7647 144.305 50.7598 144.31 50.7598 144.31C50.6661 144.656 50.745 144.962 51.0015 145.233C51.258 145.504 51.6675 145.722 52.2347 145.879C52.8267 146.047 53.3101 146.067 53.685 145.948C54.0599 145.83 54.3066 145.539 54.4348 145.09L56.3488 145.623C56.1761 146.235 55.8703 146.708 55.4263 147.044C54.9824 147.379 54.4447 147.572 53.8133 147.636C53.1819 147.7 52.511 147.631 51.7908 147.429C51.1199 147.241 50.5329 146.97 50.0297 146.61C49.5266 146.254 49.1615 145.825 48.9395 145.322C48.7126 144.819 48.688 144.266 48.8557 143.659C48.8853 143.556 48.9149 143.452 48.9445 143.348C48.9741 143.245 49.0037 143.141 49.0283 143.037L49.8472 140.097C49.9015 139.909 49.9459 139.727 49.9853 139.544C50.0248 139.362 50.0396 139.194 50.0396 139.041C50.0347 138.868 50.0149 138.72 49.9755 138.592C49.936 138.464 49.9015 138.375 49.8768 138.326L51.7908 138.859C51.8154 138.903 51.845 138.982 51.8746 139.1C51.9092 139.219 51.9289 139.352 51.9437 139.5C51.9536 139.663 51.9437 139.826 51.924 140.003C51.8993 140.181 51.8598 140.373 51.8056 140.576L51.4948 140.205C51.7266 139.949 52.0226 139.747 52.3877 139.608C52.7527 139.47 53.1621 139.396 53.611 139.391C54.0599 139.386 54.5335 139.451 55.0218 139.589L55.007 139.594ZM54.1142 140.985C53.7097 140.872 53.32 140.837 52.9401 140.876C52.5603 140.916 52.2249 141.049 51.9338 141.281C51.6428 141.508 51.4356 141.848 51.3074 142.302L51.0163 143.343L50.6957 142.682C51.041 142.653 51.4455 142.663 51.9092 142.707C52.3729 142.756 52.8366 142.82 53.2953 142.899C53.8873 143.008 54.351 143.028 54.6815 142.963C55.012 142.899 55.2241 142.697 55.3178 142.366C55.4066 142.041 55.3523 141.765 55.155 141.538C54.9528 141.306 54.6075 141.123 54.1142 140.985Z" fill="black"/>
<path d="M25.4933 122.389L23.1206 124.669C22.9035 124.876 22.7161 125.059 22.5533 125.216C22.3905 125.374 22.2524 125.503 22.1439 125.611C22.0008 125.749 21.8578 125.902 21.7196 126.07C21.5815 126.238 21.4779 126.415 21.4039 126.608C21.3299 126.795 21.3151 126.998 21.3595 127.205C21.4039 127.412 21.5322 127.634 21.7542 127.861C21.9663 128.083 22.1883 128.226 22.4251 128.29C22.6618 128.354 22.8986 128.364 23.1403 128.32C23.382 128.275 23.6188 128.182 23.8507 128.044C24.0825 127.905 24.2996 127.743 24.4969 127.55L24.635 128.349C24.1516 128.813 23.6386 129.134 23.0861 129.316C22.5336 129.499 21.991 129.534 21.4483 129.41C20.9057 129.292 20.4174 129.006 19.9783 128.552C19.5294 128.083 19.268 127.614 19.1989 127.151C19.1299 126.687 19.2039 126.233 19.4258 125.794C19.6478 125.355 19.9635 124.935 20.3779 124.536C20.5308 124.388 20.738 124.19 20.9896 123.948C21.2461 123.702 21.5421 123.416 21.8874 123.085L24.1072 120.954L25.4884 122.389H25.4933ZM28.9809 126.026L23.1305 131.64L21.7394 130.19L27.5898 124.575L28.9809 126.026ZM22.0255 118.778L19.6577 121.052C19.4258 121.274 19.2334 121.462 19.0707 121.615C18.9079 121.768 18.7747 121.901 18.6612 122.005C18.5083 122.153 18.3603 122.31 18.2222 122.478C18.0841 122.646 17.9805 122.824 17.9164 123.006C17.8522 123.189 17.8424 123.386 17.8868 123.593C17.9361 123.8 18.0693 124.018 18.2863 124.245C18.5034 124.467 18.7254 124.615 18.9621 124.684C19.1989 124.753 19.4308 124.758 19.6675 124.708C19.9043 124.659 20.1312 124.57 20.3582 124.432C20.5801 124.299 20.7873 124.141 20.9698 123.963L21.1178 124.753C20.6492 125.202 20.146 125.517 19.6034 125.7C19.0608 125.883 18.5182 125.917 17.9854 125.794C17.4477 125.675 16.9643 125.384 16.5253 124.93C16.0862 124.471 15.8248 124.013 15.7459 123.554C15.6669 123.095 15.7261 122.646 15.9284 122.207C16.1306 121.768 16.4414 121.348 16.8558 120.949C17.0186 120.796 17.2208 120.598 17.4724 120.357C17.724 120.115 18.015 119.834 18.3554 119.508L20.6393 117.312L22.0304 118.758L22.0255 118.778Z" fill="black"/>
<path d="M19.7267 115.531L12.8848 119.883L11.8094 118.186L14.0835 116.74L14.1131 117.273C13.7875 117.421 13.457 117.52 13.1216 117.569C12.7812 117.623 12.4556 117.613 12.13 117.549C11.8094 117.48 11.5036 117.347 11.2174 117.145C10.9313 116.942 10.6748 116.661 10.4528 116.311C10.2753 116.03 10.1569 115.798 10.0927 115.61C10.0286 115.423 9.99901 115.304 10.0039 115.25L11.7551 114.574C11.7502 114.638 11.7699 114.747 11.8045 114.905C11.8439 115.063 11.9327 115.255 12.0708 115.472C12.2928 115.822 12.5345 116.074 12.8009 116.232C13.0673 116.39 13.3435 116.474 13.6296 116.483C13.9158 116.493 14.1969 116.454 14.4732 116.36C14.7494 116.266 15.0059 116.148 15.2427 115.995L18.6415 113.834L19.7169 115.531H19.7267Z" fill="black"/>
<path d="M16.3821 109.714C16.54 109.986 16.5794 110.272 16.5005 110.573C16.4216 110.874 16.244 111.101 15.9727 111.259C15.7063 111.417 15.4202 111.456 15.1193 111.377C14.8184 111.298 14.5865 111.125 14.4336 110.849C14.2708 110.583 14.2314 110.301 14.3152 109.996C14.3942 109.695 14.5668 109.463 14.8332 109.305C15.1045 109.147 15.3955 109.108 15.6915 109.186C15.9924 109.265 16.2193 109.443 16.3772 109.709L16.3821 109.714Z" fill="black"/>
<path d="M11.7057 99.2349C11.9129 99.8319 11.9523 100.439 11.8191 101.055C11.686 101.672 11.4048 102.23 10.9756 102.728C10.5465 103.226 9.99396 103.591 9.32309 103.828C9.30335 103.833 9.28856 103.843 9.26882 103.848C9.25403 103.853 9.23429 103.858 9.21949 103.863L8.86926 102.935C8.87912 102.93 8.88899 102.925 8.90379 102.92C8.91859 102.916 8.92845 102.911 8.93832 102.906C9.31322 102.772 9.61413 102.565 9.84104 102.274C10.068 101.983 10.211 101.662 10.2702 101.302C10.3294 100.942 10.2998 100.592 10.1814 100.251C9.98903 99.6987 9.63386 99.2941 9.12084 99.0375C8.60288 98.781 7.9468 98.7908 7.1526 99.0721C6.34853 99.3533 5.83057 99.7529 5.59379 100.271C5.35701 100.789 5.33235 101.327 5.52967 101.884C5.64806 102.22 5.84044 102.511 6.10682 102.758C6.3732 102.999 6.67904 103.172 7.02927 103.261C7.37951 103.35 7.74455 103.33 8.12438 103.197L8.41049 104.149C7.73468 104.386 7.0786 104.44 6.44719 104.317C5.81577 104.188 5.26329 103.922 4.78973 103.522C4.31617 103.118 3.97579 102.615 3.76861 102.022C3.55156 101.401 3.50223 100.774 3.62062 100.128C3.73901 99.4865 4.03006 98.8994 4.49868 98.3665C4.96731 97.8337 5.62339 97.4192 6.47185 97.1232C7.34005 96.8173 8.12932 96.7236 8.83966 96.837C9.55 96.9505 10.1518 97.2219 10.6402 97.6462C11.1285 98.0754 11.4886 98.6083 11.7106 99.2447L11.7057 99.2349ZM13.0524 103.601L1.78557 107.539L1.11963 105.634L12.3864 101.697L13.0524 103.601Z" fill="black"/>
<path d="M9.60918 91.3704C9.71771 91.9674 9.72264 92.5052 9.61905 92.9936C9.51546 93.4772 9.30828 93.8817 9.00243 94.2024C8.69659 94.5231 8.29209 94.7303 7.78894 94.8241C7.24138 94.9277 6.76782 94.8586 6.35839 94.6267C5.94895 94.3948 5.60365 94.0445 5.31754 93.5709C5.03143 93.1022 4.79958 92.5644 4.63186 91.9575C4.37042 91.0645 4.16817 90.4429 4.02018 90.0975C3.87219 89.7521 3.69954 89.5942 3.51702 89.6288C3.51209 89.6288 3.51209 89.6288 3.50715 89.6288H3.50222C3.15198 89.6929 2.91027 89.9001 2.77708 90.2504C2.64389 90.6007 2.63403 91.0645 2.73762 91.6418C2.85108 92.2486 3.04346 92.6927 3.31477 92.9788C3.58608 93.2601 3.95112 93.3587 4.41481 93.2749L4.77985 95.2287C4.15337 95.3471 3.59595 95.278 3.10265 95.0264C2.60936 94.7748 2.195 94.3751 1.85956 93.8373C1.52412 93.2995 1.29227 92.6631 1.15415 91.923C1.02589 91.2372 1.01109 90.5909 1.10975 89.9791C1.20841 89.3722 1.43039 88.8591 1.78556 88.4348C2.1358 88.0105 2.62416 87.7441 3.24571 87.6256C3.3493 87.6059 3.45783 87.5862 3.56142 87.5664C3.66501 87.5467 3.77353 87.527 3.87712 87.5072L6.88128 86.9497C7.07366 86.9152 7.25618 86.8708 7.4387 86.8264C7.62122 86.7819 7.77907 86.7227 7.91226 86.6586C8.06518 86.5797 8.1885 86.4958 8.28223 86.402C8.38089 86.3132 8.44501 86.2442 8.47461 86.1948L8.83472 88.1437C8.80512 88.1832 8.74592 88.2473 8.65713 88.3312C8.56834 88.415 8.45488 88.4891 8.33156 88.5631C8.1885 88.642 8.03558 88.7061 7.86786 88.7654C7.70014 88.8246 7.50776 88.869 7.30058 88.9084L7.49789 88.4693C7.83333 88.5631 8.13917 88.7456 8.42528 89.0071C8.71139 89.2735 8.9531 89.6041 9.15535 90.0087C9.3576 90.4132 9.51053 90.8622 9.59932 91.3605L9.60918 91.3704ZM7.96652 91.178C7.89253 90.7685 7.74947 90.3984 7.54229 90.0778C7.33511 89.7521 7.06873 89.5104 6.73822 89.3475C6.40772 89.1847 6.00815 89.1502 5.54939 89.2341L4.48387 89.4314L4.93277 88.8492C5.11036 89.1453 5.28301 89.5153 5.4458 89.9495C5.60858 90.3836 5.75164 90.8277 5.88483 91.2816C6.04761 91.8638 6.23506 92.2881 6.44225 92.5595C6.64943 92.8308 6.92074 92.9295 7.26111 92.8703C7.59162 92.8111 7.8136 92.6384 7.93692 92.3572C8.05531 92.0759 8.07011 91.6812 7.97639 91.178H7.96652Z" fill="black"/>
<path d="M8.23293 79.0311L4.63683 79.1495C4.43458 79.1544 4.257 79.1643 4.09914 79.1692C3.94622 79.1741 3.80317 79.1791 3.67491 79.184C3.30987 79.1939 2.97937 79.258 2.68832 79.3715C2.39728 79.485 2.1753 79.6725 2.01745 79.929C1.85959 80.1856 1.7856 80.5359 1.8004 80.9799C1.8152 81.3648 1.91385 81.7052 2.11117 82.0012C2.30849 82.2923 2.56993 82.5193 2.89551 82.6821C3.22601 82.84 3.60092 82.914 4.02515 82.8992L3.62558 83.5899C2.94977 83.6097 2.34302 83.4814 1.80533 83.1903C1.26764 82.8992 0.843409 82.4995 0.527702 81.9914C0.211995 81.4832 0.0393424 80.9109 0.0196107 80.2793C-0.000120986 79.6281 0.108403 79.0755 0.345184 78.6216C0.586897 78.1726 0.937135 77.8223 1.3959 77.5805C1.85466 77.3388 2.40221 77.2055 3.03363 77.1858C3.28028 77.1759 3.55159 77.171 3.85743 77.1611C4.16327 77.1513 4.45925 77.1414 4.75522 77.1315L8.15894 77.0181L8.22307 79.0311H8.23293ZM8.42038 84.7592L0.315586 85.0257L0.251458 83.0176L8.35626 82.7512L8.42038 84.7592Z" fill="black"/>
<path d="M8.82988 72.3357C8.75589 72.9376 8.59803 73.4557 8.35632 73.8849C8.11461 74.3191 7.79397 74.6398 7.40426 74.8569C7.01456 75.069 6.56567 75.148 6.06251 75.0888C5.51002 75.0246 5.07592 74.8174 4.75528 74.477C4.43464 74.1316 4.20773 73.6925 4.07454 73.1596C3.94135 72.6268 3.88709 72.0446 3.90189 71.418C3.92162 70.4855 3.91175 69.8342 3.87229 69.4543C3.83283 69.0794 3.71937 68.882 3.53192 68.8573C3.52698 68.8573 3.52205 68.8573 3.51712 68.8573C3.16195 68.8129 2.87091 68.9412 2.63906 69.2373C2.40721 69.5333 2.25922 69.9724 2.19016 70.5546C2.11617 71.1664 2.1655 71.645 2.34308 72.0002C2.52067 72.3505 2.84131 72.5528 3.305 72.612L3.06822 74.5855C2.43681 74.5115 1.91885 74.2796 1.52422 73.8898C1.12958 73.5001 0.853338 72.9968 0.695485 72.385C0.537631 71.7732 0.503101 71.0973 0.591893 70.3523C0.675753 69.6616 0.853338 69.0399 1.12958 68.4873C1.40583 67.9347 1.7758 67.5104 2.23456 67.2144C2.69825 66.9183 3.24087 66.8049 3.86736 66.8789C3.97588 66.8937 4.07947 66.9036 4.188 66.9184C4.29652 66.9332 4.40011 66.943 4.50864 66.9578L7.53745 67.3229C7.72984 67.3476 7.92222 67.3624 8.10474 67.3723C8.29219 67.3821 8.45991 67.3723 8.6079 67.3525C8.77562 67.3229 8.91867 67.2785 9.03706 67.2193C9.15545 67.1601 9.23931 67.1157 9.28371 67.0812L9.04693 69.0547C9.00747 69.0843 8.93347 69.1238 8.82001 69.178C8.70656 69.2274 8.5783 69.2718 8.43525 69.3063C8.27739 69.3409 8.10967 69.3557 7.93209 69.3606C7.7545 69.3655 7.55718 69.3557 7.34507 69.331L7.66571 68.9708C7.95675 69.1583 8.19847 69.4198 8.39085 69.7602C8.58323 70.1007 8.71642 70.4904 8.79042 70.9345C8.86441 71.3785 8.87428 71.8522 8.81015 72.3554L8.82988 72.3357ZM7.3204 71.6647C7.36973 71.2503 7.34507 70.8555 7.24641 70.4855C7.14775 70.1155 6.96523 69.8046 6.69392 69.5481C6.42261 69.2965 6.05758 69.1386 5.58895 69.0843L4.51357 68.956L5.11539 68.5366C5.19925 68.8771 5.24858 69.2767 5.27324 69.7405C5.2979 70.2043 5.30284 70.673 5.29297 71.1417C5.27817 71.7436 5.3275 72.2025 5.44096 72.5232C5.55442 72.8439 5.78626 73.0215 6.13157 73.061C6.46701 73.1004 6.72845 73.0067 6.92577 72.7699C7.12309 72.538 7.25134 72.1679 7.31547 71.6598L7.3204 71.6647Z" fill="black"/>
<path d="M11.2765 60.1639L7.82342 59.1623C7.6261 59.1031 7.45838 59.0538 7.30546 59.0143C7.15748 58.9699 7.01935 58.9305 6.89603 58.8959C6.54579 58.7923 6.21529 58.7528 5.90451 58.7726C5.59374 58.7923 5.32243 58.8959 5.09058 59.0933C4.85873 59.2906 4.68115 59.5965 4.55782 60.0208C4.4493 60.3909 4.44437 60.751 4.53809 61.0915C4.63182 61.4319 4.8094 61.7279 5.07578 61.9845C5.33723 62.2411 5.67266 62.4236 6.07716 62.542L5.48521 63.0798C4.83407 62.8923 4.30131 62.5766 3.88201 62.1325C3.46271 61.6885 3.18154 61.1753 3.03848 60.5932C2.89543 60.011 2.91023 59.414 3.08781 58.8071C3.27033 58.1805 3.54657 57.6921 3.91161 57.3368C4.27665 56.9816 4.72061 56.7596 5.23363 56.6708C5.74666 56.582 6.30408 56.6313 6.91083 56.804C7.14761 56.8731 7.40906 56.9471 7.70503 57.0359C7.99607 57.1197 8.28712 57.2036 8.56829 57.2875L11.8388 58.2397L11.2765 60.1738V60.1639ZM9.6782 65.6701L1.89404 63.4054L2.4564 61.4763L10.2406 63.7409L9.6782 65.6701Z" fill="black"/>
<path d="M13.8367 53.9572C13.5901 54.5098 13.2843 54.9588 12.9242 55.2992C12.5641 55.6396 12.1645 55.8518 11.7255 55.9455C11.2914 56.0343 10.8375 55.9751 10.3738 55.7679C9.86574 55.541 9.51057 55.2203 9.30832 54.796C9.10607 54.3716 9.01728 53.8832 9.04687 53.3355C9.07647 52.7879 9.19486 52.2156 9.40204 51.6235C9.69802 50.7404 9.88054 50.1138 9.95453 49.7388C10.0285 49.3687 9.9792 49.1467 9.80654 49.0678C9.80161 49.0678 9.79668 49.0629 9.79668 49.0629C9.47111 48.9198 9.1554 48.9543 8.84956 49.1665C8.54372 49.3786 8.26747 49.7536 8.03069 50.2914C7.77911 50.8538 7.68539 51.3275 7.74951 51.7173C7.81364 52.107 8.06029 52.3932 8.48945 52.5856L7.68045 54.3963C7.09837 54.1348 6.67414 53.7648 6.41269 53.2763C6.15125 52.7879 6.03286 52.2254 6.06739 51.5939C6.09698 50.9624 6.2647 50.3062 6.57054 49.6204C6.85665 48.9839 7.21182 48.4412 7.63606 47.9971C8.06522 47.5531 8.54371 47.2571 9.07154 47.1091C9.59936 46.961 10.1518 47.0153 10.729 47.2719C10.8277 47.3163 10.9263 47.3607 11.02 47.4051C11.1187 47.4495 11.2174 47.4939 11.3111 47.5383L14.0982 48.7816C14.2758 48.8606 14.4534 48.9346 14.626 48.9987C14.7987 49.0629 14.9615 49.1073 15.1144 49.127C15.2821 49.1467 15.435 49.1467 15.5633 49.127C15.6965 49.1073 15.7853 49.0875 15.8395 49.0678L15.0305 50.8785C14.9812 50.8982 14.9023 50.913 14.7789 50.9278C14.6556 50.9426 14.5224 50.9476 14.3744 50.9377C14.2166 50.9229 14.0489 50.8884 13.8811 50.844C13.7085 50.7946 13.526 50.7256 13.3287 50.6417L13.743 50.3901C13.965 50.6565 14.1179 50.9772 14.2018 51.3571C14.2856 51.737 14.2955 52.1514 14.2363 52.6004C14.1771 53.0494 14.0439 53.5033 13.8367 53.9671V53.9572ZM12.5936 52.8668C12.7663 52.4869 12.8551 52.1021 12.8699 51.7173C12.8847 51.3324 12.8008 50.9821 12.6183 50.6614C12.4358 50.3407 12.13 50.0842 11.7008 49.8917L10.7142 49.4526L11.4147 49.2306C11.3949 49.576 11.3259 49.9756 11.2075 50.4246C11.094 50.8736 10.9608 51.3225 10.8079 51.7715C10.6155 52.3438 10.5268 52.7978 10.5416 53.1333C10.5563 53.4737 10.7241 53.7105 11.0398 53.8536C11.3456 53.9917 11.6268 53.9769 11.8882 53.8141C12.1448 53.6513 12.3766 53.3355 12.5887 52.8668H12.5936Z" fill="black"/>
<path d="M18.3257 45.6387C17.9952 46.1469 17.6252 46.5416 17.2158 46.8228C16.8064 47.1041 16.3772 47.2521 15.9332 47.2768C15.4893 47.2965 15.0552 47.1682 14.626 46.8919C14.1623 46.591 13.8614 46.216 13.7233 45.767C13.5852 45.318 13.5753 44.8246 13.6937 44.2869C13.8072 43.7491 14.0143 43.2014 14.3054 42.6439C14.7345 41.815 15.0108 41.2279 15.144 40.8726C15.2722 40.5174 15.2624 40.2855 15.1045 40.1819C15.0996 40.177 15.0996 40.177 15.0946 40.177L15.0897 40.172C14.7888 39.9796 14.4731 39.9648 14.1377 40.1276C13.8022 40.2905 13.4717 40.621 13.156 41.1095C12.8206 41.6275 12.6528 42.0814 12.6578 42.4761C12.6627 42.8708 12.86 43.1915 13.2497 43.4481L12.1694 45.1157C11.6367 44.7704 11.2766 44.3362 11.0891 43.8132C10.9066 43.2902 10.877 42.7179 11.0052 42.0962C11.1335 41.4746 11.4048 40.8529 11.8093 40.2263C12.1892 39.6392 12.6232 39.1606 13.1165 38.7906C13.6049 38.4156 14.1229 38.1985 14.6704 38.1344C15.218 38.0702 15.7557 38.2084 16.2835 38.5537C16.3723 38.613 16.4611 38.6722 16.5548 38.7264C16.6436 38.7856 16.7324 38.8448 16.8261 38.8991L19.3863 40.5618C19.5491 40.6654 19.7119 40.7641 19.8747 40.8529C20.0374 40.9417 20.1904 41.0108 20.3334 41.0601C20.4962 41.1045 20.6442 41.1292 20.7774 41.1292C20.9106 41.1292 21.0043 41.1243 21.0635 41.1144L19.9832 42.7771C19.9338 42.787 19.85 42.7919 19.7267 42.787C19.6033 42.782 19.4701 42.7623 19.3271 42.7327C19.1692 42.6932 19.0163 42.634 18.8535 42.56C18.6907 42.486 18.523 42.3873 18.3405 42.2739L18.7894 42.0913C18.967 42.3873 19.0657 42.7327 19.0903 43.1225C19.115 43.5122 19.0607 43.9218 18.9325 44.351C18.8042 44.7852 18.602 45.2144 18.3257 45.6387ZM17.2651 44.3658C17.492 44.0155 17.645 43.6504 17.719 43.2754C17.793 42.9004 17.7683 42.5403 17.6351 42.19C17.5068 41.8446 17.2405 41.5436 16.8508 41.2871L15.9431 40.695L16.6682 40.5865C16.5943 40.9269 16.466 41.3118 16.2835 41.7361C16.101 42.1653 15.8987 42.5847 15.6817 43.0041C15.4005 43.5369 15.2426 43.976 15.2081 44.3115C15.1736 44.647 15.2969 44.9085 15.5879 45.1009C15.8691 45.2835 16.1503 45.3131 16.4315 45.1897C16.7126 45.0664 16.9889 44.7901 17.2701 44.3609L17.2651 44.3658Z" fill="black"/>
<path d="M23.9936 38.0656C23.5743 38.5047 23.1353 38.8205 22.6815 39.0178C22.2276 39.2152 21.7787 39.2843 21.3348 39.2201C20.8957 39.156 20.4912 38.9488 20.1213 38.5985C19.7217 38.2136 19.4948 37.7893 19.4455 37.3206C19.3961 36.8519 19.48 36.3634 19.6921 35.8602C19.9042 35.352 20.2101 34.8537 20.6047 34.3652C21.1819 33.635 21.5666 33.1022 21.759 32.7765C21.9563 32.4509 21.981 32.224 21.8478 32.0957C21.8429 32.0907 21.8429 32.0907 21.8379 32.0858C21.5814 31.8391 21.2706 31.7651 20.9105 31.8638C20.5504 31.9625 20.1657 32.219 19.7612 32.6433C19.3369 33.0874 19.0854 33.5018 19.0163 33.8867C18.9472 34.2715 19.0804 34.6317 19.4208 34.9524L18.0445 36.3832C17.5857 35.9441 17.3144 35.4457 17.2306 34.8981C17.1467 34.3504 17.2306 33.783 17.4723 33.1959C17.714 32.6088 18.0938 32.0513 18.6118 31.5086C19.0952 31.0053 19.6132 30.6155 20.1657 30.3442C20.7182 30.0679 21.2706 29.9544 21.8182 29.9889C22.3658 30.0284 22.8689 30.2652 23.3227 30.7043C23.4017 30.7783 23.4757 30.8524 23.5546 30.9264C23.6335 31.0004 23.7075 31.0744 23.7864 31.1484L25.9865 33.2601C26.1246 33.3933 26.2677 33.5216 26.4108 33.64C26.5538 33.7584 26.6919 33.8521 26.8251 33.9261C26.978 34.0001 27.1211 34.0544 27.2494 34.0791C27.3776 34.1037 27.4713 34.1185 27.5305 34.1185L26.1542 35.5494C26.1049 35.5494 26.0211 35.5395 25.9027 35.5099C25.7843 35.4852 25.656 35.4408 25.5179 35.3816C25.3699 35.3125 25.2269 35.2287 25.0838 35.125C24.9407 35.0214 24.7878 34.8932 24.6349 34.7451L25.1085 34.6465C25.2269 34.9721 25.2614 35.3273 25.2121 35.7122C25.1627 36.097 25.0345 36.4917 24.8224 36.8914C24.6152 37.291 24.334 37.6758 23.9838 38.0409L23.9936 38.0656ZM23.1896 36.62C23.4806 36.319 23.6976 35.9885 23.8407 35.6332C23.9838 35.278 24.0282 34.9178 23.964 34.5527C23.8999 34.1876 23.6976 33.8423 23.3622 33.5216L22.5828 32.7716L23.3178 32.8012C23.1797 33.1219 22.9824 33.4722 22.7209 33.8571C22.4595 34.2419 22.1832 34.6169 21.8922 34.9869C21.5173 35.4605 21.2805 35.8553 21.1819 36.1809C21.0832 36.5065 21.1572 36.7877 21.4088 37.0246C21.6505 37.2565 21.9218 37.3403 22.2178 37.2713C22.5137 37.2022 22.8393 36.9851 23.1945 36.6151L23.1896 36.62Z" fill="black"/>
<path d="M52.7032 19.5095L51.8203 16.337C51.7413 16.0459 51.6673 15.7943 51.6081 15.5772C51.5489 15.3601 51.4947 15.1776 51.4552 15.0295C51.401 14.8371 51.3319 14.6398 51.253 14.4375C51.1691 14.2352 51.0606 14.0576 50.9323 13.9046C50.7991 13.7517 50.6314 13.6431 50.4292 13.579C50.222 13.5149 49.9704 13.5297 49.6646 13.6135C49.3686 13.6974 49.1367 13.8257 48.969 13.9984C48.8013 14.176 48.678 14.3832 48.604 14.6151C48.53 14.8519 48.5004 15.1036 48.5103 15.37C48.5201 15.6413 48.5645 15.9078 48.6385 16.1742L47.869 15.9226C47.6914 15.2812 47.6519 14.6743 47.7506 14.102C47.8493 13.5297 48.0762 13.0313 48.4412 12.6169C48.8013 12.1975 49.2847 11.9015 49.8915 11.7288C50.518 11.5561 51.0557 11.5463 51.4947 11.7041C51.9337 11.862 52.2987 12.1433 52.5799 12.5478C52.866 12.9475 53.0831 13.4261 53.2409 13.9836C53.3001 14.1908 53.3741 14.4622 53.4679 14.8026C53.5616 15.143 53.675 15.5427 53.8033 16.0064L54.632 18.9717L52.7131 19.5095H52.7032ZM47.8542 20.8663L45.6738 13.056L47.6075 12.5182L49.7879 20.3285L47.8542 20.8712V20.8663ZM57.5326 18.1625L56.6496 14.9999C56.5657 14.6891 56.4917 14.4326 56.4325 14.2155C56.3733 13.9984 56.324 13.8208 56.2796 13.6727C56.2204 13.4655 56.1514 13.2632 56.0675 13.0609C55.9836 12.8587 55.8801 12.686 55.7469 12.538C55.6186 12.3899 55.446 12.2913 55.2437 12.237C55.0365 12.1827 54.7849 12.1975 54.4791 12.2814C54.1782 12.3653 53.9463 12.4936 53.7737 12.6712C53.601 12.8439 53.4876 13.0461 53.4185 13.278C53.3495 13.5099 53.3199 13.7566 53.3347 14.0132C53.3445 14.2747 53.3889 14.5263 53.458 14.773L52.6934 14.5263C52.5207 13.9046 52.4813 13.3076 52.575 12.7452C52.6687 12.1778 52.9006 11.6893 53.2607 11.2749C53.6208 10.8605 54.1042 10.5644 54.711 10.3967C55.3226 10.224 55.8505 10.2141 56.2895 10.3572C56.7335 10.5052 57.0985 10.7667 57.3895 11.1565C57.6806 11.5413 57.9026 12.015 58.0555 12.5676C58.1147 12.7847 58.1936 13.056 58.2873 13.3915C58.3811 13.727 58.4896 14.1168 58.6178 14.5756L59.4712 17.6297L57.5375 18.1675L57.5326 18.1625Z" fill="black"/>
<path d="M61.4395 17.5408L60.4727 9.48881L62.4656 9.24706L62.7862 11.9261L62.2929 11.7238C62.3028 11.3686 62.357 11.0282 62.4557 10.6976C62.5544 10.372 62.7023 10.0759 62.9046 9.81445C63.1019 9.55295 63.3535 9.33586 63.6643 9.16811C63.9701 8.99543 64.3351 8.88689 64.7495 8.83755C65.08 8.79808 65.3415 8.79314 65.5388 8.81781C65.7361 8.84248 65.8545 8.86715 65.9038 8.89182L65.7608 10.7617C65.7065 10.7321 65.598 10.6976 65.4401 10.6631C65.2773 10.6285 65.0701 10.6285 64.8136 10.6581C64.4042 10.7075 64.0737 10.816 63.8122 10.9887C63.5557 11.1614 63.3584 11.3735 63.2252 11.6301C63.092 11.8867 63.0082 12.158 62.9687 12.4442C62.9293 12.7353 62.9293 13.0165 62.9638 13.2977L63.4423 17.2991L61.4494 17.5408H61.4395Z" fill="black"/>
<path d="M68.1236 17.1409C67.8079 17.1508 67.5366 17.0521 67.3097 16.84C67.0828 16.6278 66.9644 16.3663 66.9545 16.0505C66.9447 15.7397 67.0433 15.4733 67.2554 15.2414C67.4676 15.0144 67.729 14.896 68.0447 14.8911C68.3555 14.8763 68.6219 14.975 68.8537 15.1921C69.0806 15.4042 69.2039 15.6657 69.2138 15.9765C69.2237 16.2923 69.1201 16.5637 68.908 16.7906C68.6959 17.0176 68.4344 17.136 68.1236 17.1459V17.1409Z" fill="black"/>
<path d="M79.5976 17.664C78.9711 17.59 78.4137 17.3532 77.9155 16.9683C77.4222 16.5786 77.0473 16.0802 76.7858 15.4734C76.5293 14.8665 76.4405 14.2103 76.5293 13.5048C76.5293 13.4851 76.5343 13.4653 76.5343 13.4505C76.5343 13.4308 76.5392 13.416 76.5392 13.4012L77.5258 13.4949C77.5258 13.5048 77.5208 13.5196 77.5208 13.5344C77.5208 13.5492 77.5159 13.564 77.5159 13.5739C77.4666 13.9686 77.5258 14.3337 77.6836 14.6593C77.8415 14.9899 78.0684 15.2612 78.3644 15.4734C78.6604 15.6855 78.9859 15.8138 79.346 15.8533C79.9281 15.9224 80.4461 15.7842 80.9048 15.4339C81.3636 15.0836 81.6398 14.4916 81.7434 13.6528C81.847 12.8091 81.7188 12.1628 81.3587 11.7237C80.9986 11.2846 80.525 11.028 79.938 10.9589C79.5828 10.9145 79.2424 10.9589 78.9021 11.0922C78.5666 11.2254 78.2805 11.4277 78.0437 11.7039C77.807 11.9802 77.6688 12.3157 77.6195 12.7154L76.6379 12.5526C76.7217 11.8421 76.9585 11.2254 77.3531 10.7172C77.7428 10.2041 78.2263 9.82416 78.7985 9.5824C79.3707 9.33571 79.9676 9.2469 80.5941 9.32584C81.2452 9.40478 81.8372 9.63667 82.3601 10.0264C82.8829 10.4113 83.2825 10.9343 83.5538 11.5905C83.8251 12.2467 83.909 13.0213 83.8054 13.9094C83.6969 14.8221 83.4354 15.5721 83.0211 16.1592C82.6067 16.7463 82.0986 17.1657 81.5017 17.4223C80.9048 17.6739 80.2685 17.7627 79.5927 17.6788L79.5976 17.664ZM75.084 16.9535L76.5047 5.10742L78.5074 5.34918L77.0868 17.1953L75.084 16.9535Z" fill="black"/>
<path d="M87.5494 19.381C86.9673 19.2133 86.4839 18.9715 86.0942 18.6656C85.7045 18.3548 85.4381 17.9897 85.2901 17.5703C85.1421 17.1509 85.1372 16.697 85.2753 16.2086C85.4282 15.6757 85.6995 15.281 86.0892 15.0195C86.479 14.758 86.9476 14.6051 87.5001 14.5607C88.0476 14.5163 88.6297 14.5508 89.2512 14.6692C90.1688 14.837 90.8101 14.9307 91.1899 14.9554C91.5697 14.9751 91.7868 14.8962 91.8361 14.7136C91.8361 14.7087 91.8361 14.7087 91.841 14.7038V14.6988C91.9397 14.3584 91.8608 14.0476 91.6043 13.7713C91.3477 13.495 90.9433 13.2779 90.376 13.1151C89.784 12.9424 89.3006 12.9177 88.9257 13.0361C88.5508 13.1545 88.2992 13.4358 88.1709 13.8848L86.2619 13.3371C86.4395 12.7253 86.7453 12.2566 87.1942 11.926C87.6431 11.5955 88.1808 11.403 88.8122 11.3488C89.4436 11.2896 90.1194 11.3685 90.8347 11.5708C91.5056 11.7632 92.0926 12.0395 92.5908 12.3997C93.0891 12.7598 93.4492 13.1891 93.6712 13.6923C93.8931 14.1956 93.9129 14.7482 93.7402 15.355C93.7106 15.4586 93.681 15.5623 93.6514 15.6609C93.6218 15.7645 93.5922 15.8682 93.5626 15.9668L92.7191 18.9025C92.6648 19.0899 92.6204 19.2725 92.581 19.455C92.5415 19.6376 92.5218 19.8053 92.5169 19.9583C92.5218 20.131 92.5415 20.279 92.581 20.4073C92.6204 20.5356 92.65 20.6244 92.6796 20.6737L90.7755 20.126C90.7509 20.0816 90.7213 20.0027 90.6867 19.8843C90.6522 19.7659 90.6325 19.6327 90.6226 19.4896C90.6177 19.3268 90.6226 19.1639 90.6473 18.9863C90.6719 18.8087 90.7114 18.6163 90.7706 18.414L91.0764 18.789C90.8446 19.0455 90.5437 19.2429 90.1786 19.381C89.8136 19.5192 89.4091 19.5883 88.9553 19.5883C88.5064 19.5932 88.0328 19.5241 87.5445 19.381H87.5494ZM88.4571 17.9946C88.8566 18.1081 89.2513 18.1476 89.6311 18.1081C90.0109 18.0686 90.3513 17.9404 90.6423 17.7134C90.9334 17.4864 91.1455 17.146 91.2738 16.697L91.5747 15.656L91.8904 16.3171C91.5451 16.3467 91.1406 16.3319 90.6769 16.2826C90.2132 16.2333 89.7544 16.1642 89.2907 16.0754C88.6988 15.9619 88.2351 15.9372 87.8996 16.0014C87.5642 16.0655 87.3521 16.2629 87.2584 16.5934C87.1646 16.9141 87.2189 17.1954 87.4162 17.4272C87.6135 17.6591 87.9588 17.8466 88.4571 17.9897V17.9946Z" fill="black"/>
<path d="M99.206 23.6588L100.676 20.3729C100.76 20.1854 100.834 20.0226 100.893 19.8844C100.957 19.7413 101.011 19.6131 101.066 19.4996C101.214 19.1641 101.302 18.8434 101.327 18.5326C101.352 18.2217 101.283 17.9405 101.12 17.6839C100.957 17.4274 100.676 17.2103 100.272 17.0277C99.9163 16.8699 99.5661 16.8156 99.2159 16.86C98.8706 16.9093 98.5499 17.0425 98.2589 17.2695C97.9728 17.4965 97.7409 17.8024 97.5683 18.1872L97.1194 17.5261C97.3956 16.9093 97.7804 16.4209 98.2786 16.0656C98.7768 15.7104 99.3195 15.5032 99.9163 15.4391C100.513 15.3749 101.1 15.4736 101.677 15.7301C102.274 15.9966 102.723 16.337 103.024 16.7515C103.325 17.1659 103.483 17.6297 103.498 18.1527C103.512 18.6707 103.394 19.2233 103.138 19.7956C103.039 20.0176 102.925 20.2693 102.802 20.5505C102.679 20.8317 102.555 21.1031 102.437 21.3695L101.046 24.4778L99.206 23.6539V23.6588ZM93.9722 21.3202L97.2822 13.9194L99.1172 14.7384L95.8072 22.1392L93.9722 21.3202Z" fill="black"/>
<path d="M104.913 27.2062C104.425 26.851 104.05 26.4612 103.789 26.0418C103.527 25.6175 103.399 25.1833 103.404 24.7393C103.404 24.2953 103.557 23.866 103.853 23.4516C104.178 23.0026 104.568 22.7214 105.022 22.6079C105.476 22.4944 105.974 22.5092 106.502 22.6523C107.035 22.7954 107.567 23.0273 108.11 23.348C108.914 23.8167 109.491 24.1275 109.836 24.2755C110.187 24.4235 110.414 24.4235 110.527 24.2706C110.532 24.2657 110.532 24.2657 110.532 24.2607L110.537 24.2558C110.744 23.9647 110.779 23.6489 110.631 23.3036C110.483 22.9582 110.172 22.6128 109.698 22.2724C109.2 21.9122 108.751 21.7247 108.357 21.705C107.962 21.6902 107.631 21.8678 107.355 22.2477L105.747 21.0833C106.122 20.5702 106.571 20.2298 107.104 20.0719C107.636 19.914 108.209 19.914 108.82 20.0768C109.432 20.2347 110.044 20.5357 110.65 20.9748C111.218 21.3843 111.672 21.8431 112.022 22.3513C112.372 22.8595 112.559 23.3874 112.599 23.9351C112.638 24.4827 112.471 25.0156 112.101 25.5238C112.037 25.6126 111.977 25.6965 111.913 25.7853C111.849 25.8741 111.79 25.958 111.726 26.0468L109.935 28.5235C109.822 28.6814 109.718 28.8393 109.619 28.9972C109.521 29.1551 109.447 29.3031 109.393 29.4462C109.338 29.609 109.309 29.757 109.299 29.8902C109.289 30.0234 109.294 30.1172 109.299 30.1764L107.691 29.012C107.681 28.9627 107.681 28.8788 107.691 28.7554C107.701 28.6321 107.725 28.4989 107.765 28.3607C107.814 28.2078 107.878 28.0548 107.962 27.897C108.046 27.7391 108.149 27.5713 108.273 27.3986L108.436 27.8525C108.13 28.0154 107.779 28.0992 107.39 28.1042C107 28.1091 106.596 28.0351 106.171 27.8822C105.747 27.7341 105.328 27.5072 104.913 27.2112V27.2062ZM106.235 26.2096C106.576 26.4563 106.931 26.624 107.301 26.7178C107.671 26.8115 108.036 26.8016 108.386 26.6882C108.736 26.5747 109.052 26.328 109.328 25.9481L109.965 25.0699L110.039 25.8001C109.703 25.7063 109.328 25.5583 108.909 25.356C108.49 25.1537 108.08 24.9317 107.676 24.69C107.158 24.3841 106.729 24.2015 106.393 24.1472C106.058 24.093 105.791 24.2065 105.589 24.4877C105.392 24.759 105.348 25.0403 105.456 25.3264C105.565 25.6126 105.826 25.9037 106.24 26.2047L106.235 26.2096Z" fill="black"/>
<path d="M114.631 34.9326L117.122 32.3374C117.265 32.1894 117.389 32.0611 117.492 31.9476C117.601 31.8341 117.695 31.7354 117.783 31.6417C118.035 31.3753 118.227 31.1039 118.356 30.8178C118.484 30.5365 118.513 30.2454 118.449 29.9494C118.385 29.6534 118.188 29.3524 117.872 29.0465C117.591 28.7801 117.28 28.6074 116.935 28.5334C116.59 28.4594 116.244 28.4791 115.899 28.5975C115.554 28.711 115.233 28.9232 114.942 29.2291L114.745 28.4545C115.213 27.966 115.741 27.6354 116.328 27.4677C116.915 27.2999 117.502 27.2901 118.079 27.4332C118.661 27.5762 119.179 27.8673 119.638 28.3015C120.107 28.7505 120.417 29.2241 120.561 29.7175C120.704 30.206 120.694 30.6993 120.536 31.1977C120.373 31.691 120.077 32.1696 119.638 32.6235C119.47 32.8012 119.278 32.9985 119.066 33.2205C118.854 33.4426 118.647 33.6547 118.444 33.8669L116.086 36.3239L114.631 34.9276V34.9326ZM110.492 30.9658L116.106 25.1143L117.556 26.5056L111.943 32.3571L110.492 30.9658Z" fill="black"/>
<path d="M119.012 40.0239C118.637 39.5502 118.385 39.0717 118.247 38.5931C118.114 38.1145 118.109 37.6606 118.232 37.2313C118.356 36.8021 118.617 36.4321 119.017 36.1163C119.451 35.7709 119.905 35.6081 120.373 35.6229C120.842 35.6377 121.315 35.7907 121.784 36.0719C122.258 36.3531 122.706 36.7232 123.136 37.182C123.782 37.853 124.25 38.3069 124.546 38.5437C124.842 38.7806 125.059 38.8398 125.207 38.7263C125.212 38.7214 125.217 38.7214 125.217 38.7164C125.498 38.4944 125.612 38.1984 125.568 37.8283C125.523 37.4583 125.316 37.0389 124.956 36.5801C124.576 36.0966 124.201 35.7907 123.826 35.6673C123.451 35.544 123.081 35.6278 122.716 35.9189L121.488 34.3599C121.986 33.9651 122.514 33.7629 123.071 33.7579C123.629 33.753 124.176 33.9109 124.724 34.2316C125.272 34.5523 125.77 35.0062 126.233 35.5933C126.663 36.141 126.978 36.7084 127.176 37.2905C127.373 37.8777 127.412 38.4352 127.299 38.973C127.186 39.5108 126.88 39.9745 126.381 40.3643C126.298 40.4285 126.214 40.4975 126.13 40.5617C126.046 40.6258 125.962 40.6949 125.878 40.759L123.481 42.6487C123.328 42.7671 123.18 42.8904 123.042 43.0138C122.904 43.1371 122.79 43.2654 122.701 43.3888C122.603 43.5318 122.534 43.665 122.489 43.7884C122.445 43.9117 122.42 44.0055 122.415 44.0647L121.187 42.5056C121.192 42.4563 121.217 42.3773 121.261 42.2589C121.305 42.1454 121.365 42.0221 121.439 41.8987C121.527 41.7655 121.631 41.6323 121.754 41.504C121.878 41.3758 122.021 41.2425 122.188 41.1093L122.218 41.5928C121.878 41.6669 121.523 41.652 121.148 41.5484C120.773 41.4448 120.403 41.2623 120.033 41.0008C119.663 40.7393 119.322 40.4087 119.012 40.0091V40.0239ZM120.556 39.4269C120.812 39.7525 121.108 40.014 121.444 40.2064C121.774 40.3989 122.124 40.4877 122.494 40.4778C122.864 40.463 123.234 40.315 123.599 40.0239L124.448 39.3529L124.319 40.0782C124.024 39.8956 123.703 39.6538 123.358 39.3381C123.012 39.0273 122.677 38.7016 122.351 38.3612C121.937 37.9221 121.577 37.6359 121.266 37.4928C120.96 37.3498 120.669 37.3843 120.398 37.6014C120.136 37.8086 120.013 38.0652 120.038 38.3711C120.062 38.6769 120.235 39.0273 120.551 39.4318L120.556 39.4269Z" fill="black"/>
<path d="M124.418 47.7848C124.112 47.2618 123.93 46.7536 123.861 46.2602C123.797 45.7668 123.856 45.3179 124.033 44.9133C124.216 44.5087 124.527 44.1732 124.966 43.9167C125.444 43.6354 125.913 43.5368 126.377 43.6157C126.84 43.6946 127.284 43.9117 127.713 44.2571C128.143 44.6025 128.537 45.0317 128.902 45.5448C129.45 46.2997 129.849 46.8128 130.106 47.0891C130.362 47.3654 130.575 47.4591 130.742 47.3605C130.747 47.3605 130.747 47.3555 130.752 47.3555L130.757 47.3506C131.063 47.173 131.221 46.8918 131.226 46.5217C131.231 46.1468 131.088 45.7076 130.792 45.1995C130.481 44.6666 130.15 44.3114 129.795 44.1387C129.445 43.966 129.065 43.9956 128.661 44.2324L127.659 42.5155C128.207 42.1948 128.759 42.0665 129.307 42.1405C129.859 42.2096 130.382 42.4464 130.875 42.8411C131.369 43.2358 131.808 43.7538 132.183 44.4002C132.533 45.0021 132.765 45.609 132.878 46.2158C132.992 46.8227 132.952 47.3802 132.765 47.8983C132.577 48.4163 132.212 48.8308 131.665 49.1515C131.571 49.2057 131.482 49.26 131.388 49.3143C131.295 49.3685 131.206 49.4228 131.112 49.4771L128.473 51.0164C128.305 51.1151 128.143 51.2187 127.99 51.3223C127.837 51.4259 127.704 51.5345 127.6 51.643C127.486 51.7713 127.398 51.8897 127.339 52.0081C127.279 52.1265 127.24 52.2154 127.225 52.2696L126.224 50.5576C126.238 50.5083 126.268 50.4293 126.327 50.3208C126.386 50.2122 126.46 50.1037 126.554 49.9902C126.663 49.8669 126.781 49.7534 126.919 49.6448C127.057 49.5363 127.22 49.4228 127.408 49.3143L127.368 49.7978C127.023 49.8225 126.668 49.7583 126.312 49.6054C125.952 49.4524 125.612 49.2205 125.286 48.9097C124.956 48.5989 124.665 48.2239 124.408 47.7848H124.418ZM126.031 47.4098C126.243 47.77 126.5 48.0709 126.801 48.3028C127.102 48.5397 127.437 48.6778 127.807 48.7173C128.172 48.7567 128.562 48.6581 128.966 48.4212L129.904 47.8736L129.677 48.5742C129.405 48.3522 129.119 48.066 128.823 47.7108C128.522 47.3555 128.236 46.9855 127.96 46.6056C127.61 46.1171 127.289 45.7767 127.008 45.5892C126.722 45.4067 126.431 45.4017 126.135 45.5744C125.844 45.7422 125.691 45.979 125.676 46.2849C125.661 46.5908 125.78 46.9658 126.041 47.4098H126.031Z" fill="black"/>
<path d="M128.562 56.2908C128.34 55.7284 128.231 55.1955 128.236 54.7022C128.246 54.2038 128.369 53.7697 128.611 53.3947C128.853 53.0197 129.208 52.7385 129.682 52.551C130.2 52.3438 130.678 52.3191 131.122 52.4671C131.566 52.6151 131.975 52.8964 132.35 53.3009C132.72 53.7055 133.051 54.189 133.332 54.7515C133.761 55.5804 134.082 56.1478 134.294 56.4635C134.506 56.7744 134.703 56.8977 134.876 56.8286C134.881 56.8286 134.886 56.8237 134.886 56.8237C135.216 56.6905 135.414 56.4389 135.473 56.0738C135.532 55.7037 135.458 55.2449 135.241 54.7022C135.014 54.1298 134.738 53.7302 134.417 53.5082C134.097 53.2812 133.717 53.2565 133.278 53.4292L132.543 51.584C133.135 51.3472 133.697 51.3077 134.23 51.4557C134.763 51.6086 135.246 51.9195 135.675 52.3833C136.104 52.847 136.459 53.4243 136.736 54.12C136.992 54.7663 137.13 55.4028 137.155 56.0195C137.175 56.6362 137.051 57.1839 136.79 57.6674C136.528 58.1509 136.104 58.5061 135.517 58.743C135.419 58.7824 135.32 58.8219 135.221 58.8614C135.123 58.9008 135.024 58.9403 134.925 58.9798L132.089 60.1047C131.911 60.1738 131.734 60.2527 131.566 60.3316C131.398 60.4106 131.255 60.4994 131.132 60.5931C130.999 60.7017 130.895 60.8102 130.816 60.9138C130.737 61.0224 130.688 61.1013 130.663 61.1556L129.928 59.3103C129.948 59.2659 129.992 59.1919 130.066 59.0982C130.14 58.9995 130.234 58.9008 130.343 58.8022C130.466 58.6986 130.604 58.6048 130.757 58.516C130.91 58.4272 131.087 58.3433 131.285 58.2644L131.176 58.7331C130.831 58.7035 130.491 58.59 130.16 58.3877C129.83 58.1805 129.524 57.8993 129.248 57.544C128.971 57.1888 128.734 56.7744 128.547 56.3056L128.562 56.2908ZM130.209 56.1576C130.362 56.5474 130.574 56.878 130.836 57.1592C131.102 57.4355 131.408 57.623 131.768 57.7167C132.123 57.8105 132.523 57.771 132.957 57.5983L133.963 57.1987L133.633 57.8549C133.401 57.5983 133.164 57.2677 132.918 56.873C132.676 56.4783 132.449 56.0688 132.232 55.6494C131.956 55.1117 131.694 54.7318 131.443 54.5048C131.191 54.2778 130.9 54.2334 130.579 54.3617C130.269 54.4851 130.081 54.6972 130.017 54.9982C129.953 55.2942 130.017 55.684 130.209 56.1626V56.1576Z" fill="black"/>
<g clip-path="url(#clip0_4238_123)">
<path d="M70.86 132.74C100.606 132.74 124.72 108.622 124.72 78.87C124.72 49.1184 100.606 25 70.86 25C41.114 25 17 49.1184 17 78.87C17 108.622 41.114 132.74 70.86 132.74Z" fill="#FFCE20"/>
<path fill-rule="evenodd" clip-rule="evenodd" d="M77.6568 72.6406C77.2391 72.5606 76.8128 72.454 76.3951 72.3206C74.7782 71.8054 73.3477 70.9612 72.1482 69.7704C69.3938 70.179 66.4531 70.1701 63.8764 69.0949C60.0647 67.4955 59.2474 63.8787 61.5219 60.5727C62.3926 59.3021 63.4587 58.2711 64.7115 57.3914C64.9603 57.2136 65.298 57.018 65.6177 56.8139C65.378 55.472 65.1203 53.979 65.1559 52.8148C65.1914 51.4641 66.0443 49.1803 66.826 48.0695C69.3227 44.5238 75.089 43.564 79.1406 43.9906C79.3272 44.0083 79.505 44.035 79.6735 44.0705C81.5751 42.8175 84.0718 42.3999 86.0263 43.7862C87.6968 44.977 88.2297 46.8165 88.8074 48.6649C89.1182 49.6602 89.447 50.6465 89.7669 51.6418C90.4332 51.6063 91.0908 51.5707 91.757 51.5352C92.4855 51.4908 93.152 51.4108 93.8894 51.473C95.3288 51.5974 96.5904 52.3085 97.0614 53.7479C98.021 56.7339 94.627 59.2577 92.601 60.8571C91.7037 61.5682 90.7797 62.2434 89.8202 62.8656C89.7047 64.6695 89.0648 66.3669 88.0698 67.9308C87.6524 68.5885 87.1814 69.1927 86.6659 69.7438L86.7104 69.8238C86.7548 69.8946 86.8437 70.0546 86.9148 70.1257C87.1192 70.2057 87.6524 70.2679 87.8565 70.3035C88.7896 70.4812 89.6158 70.7834 90.4332 71.2632C93.0898 72.8273 94.6625 77.5993 95.0177 80.5318C96.235 90.5648 91.6593 100.109 83.9296 106.383C75.7466 113.03 64.9426 115.349 54.7517 112.603C52.0773 111.884 48.239 110.648 46.311 108.542C44.525 106.587 44.6317 104.188 46.311 102.224C48.8522 99.2467 54.8406 97.2918 58.6431 96.4299C63.1302 95.4168 66.986 93.2575 70.0692 90.0315C69.8293 89.9692 69.6071 89.8715 69.3849 89.7473C68.0433 88.9562 67.5548 87.3835 67.3148 85.9349C67.2526 85.5883 67.2526 85.2238 67.2171 84.8774L66.986 84.4597L67.1726 83.7133C67.1726 83.5978 67.1638 83.4733 67.1638 83.3667V83.3044V83.2422C67.1726 83.0556 67.1904 82.8689 67.2082 82.6825L67.0393 82.1936L67.3148 81.5895C67.3237 81.4917 67.3326 81.4028 67.3415 81.3051L67.3504 81.2517L67.5015 80.3809L67.7147 79.1812L67.8744 79.0035C67.9278 78.8168 67.9633 78.6213 68.0166 78.4346L68.0344 78.3724L68.0522 78.3102C68.0877 78.2124 68.141 78.1057 68.1766 78.0082L68.1855 77.4127L68.5854 76.986C68.6831 76.7908 68.7631 76.5863 68.8609 76.3908C69.0031 76.1152 69.1983 75.8486 69.3316 75.5822L69.6249 74.9955L69.8737 74.8533C70.0603 74.6311 70.2556 74.4358 70.4778 74.2492C71.2331 73.6181 72.0949 73.3161 73.09 73.4492L73.1877 73.467L73.2855 73.4936C73.7651 73.6092 74.085 73.7781 74.5205 73.9647L74.9379 74.1425L75.1512 74.3736C75.3556 74.5247 75.5778 74.6578 75.7822 74.8267C76.2796 75.2444 76.6617 75.6355 77.0438 76.0619C77.2835 74.9333 77.479 73.8047 77.6123 72.6584L77.6568 72.6406Z" fill="#FEFEFE"/>
<path fill-rule="evenodd" clip-rule="evenodd" d="M55.347 110.524C75.6757 116.016 95.1601 99.4515 92.9034 80.7987C92.6634 78.7991 91.3751 74.3203 89.3672 73.1384C87.1282 71.8232 86.0176 72.9606 84.8537 70.8901C83.9386 71.5123 82.908 71.9743 81.7441 72.2232C81.1131 72.3654 80.4824 72.4454 79.8515 72.4631L79.8248 72.7206C79.576 74.7914 79.1852 76.8175 78.6431 78.7546C79.2652 78.7368 79.9225 78.8968 80.5977 79.1368C80.6777 79.1635 80.7665 79.199 80.8465 79.2257C80.9798 79.1013 81.1131 78.9857 81.2642 78.8702C81.4419 78.728 81.5752 78.5857 81.7794 78.4438C89.2783 73.2717 91.4284 78.106 90.6822 83.9089C90.46 85.5263 90.4244 85.9972 89.8382 87.6946C89.4827 88.7254 89.0117 89.7207 88.3454 90.5915C88.0699 90.947 87.7145 91.2937 87.3415 91.5423C86.1154 92.3422 84.8448 92.0045 83.7342 91.2048C82.5703 90.3604 81.8416 89.4273 80.891 88.4143L80.8554 88.3788L80.2691 87.6679C79.8692 87.7568 79.4427 87.7835 79.0608 87.7657L78.4743 87.7479L78.4032 87.7391C77.7369 87.6591 77.1682 87.5435 76.5463 87.2857C76.0842 87.6146 75.5868 87.9168 75.1691 88.201C74.787 88.4588 74.3251 88.7343 73.8186 88.9832C70.3802 93.6664 65.5201 97.1143 59.1765 98.5537C50.567 100.5 39.2744 106.187 55.3648 110.533L55.347 110.524Z" fill="black"/>
<path fill-rule="evenodd" clip-rule="evenodd" d="M86.5595 77.9105C86.462 77.9727 85.8133 78.1502 85.6444 78.2213C85.4756 78.2924 84.9248 78.5768 84.7738 78.5857L84.6582 78.6924C84.0098 78.9679 83.3432 79.4921 82.7659 79.8832C82.6059 79.9899 82.517 80.1054 82.3393 80.2476C81.8861 80.6118 81.522 80.9673 81.3087 81.5718L81.1132 82.5759C81.3798 82.4514 82.0727 82.3181 82.4104 82.3092L83.3344 82.247C83.7343 82.2026 84.4183 82.2648 84.8271 82.3715C84.6671 82.4337 83.4588 82.5848 83.2721 82.5581C83.1122 82.6737 81.7353 82.8689 81.4153 82.9223L81.0598 82.9845L80.9976 83.2511C81.0865 83.4645 80.9354 83.8467 81.0154 84.0864C81.2642 84.2642 83.3166 85.2239 83.601 85.295C82.8458 85.215 81.7264 84.7886 81.0065 84.5575C81.0065 85.1083 81.051 85.9172 81.3887 86.2991L82.1527 87.2324C82.97 88.1032 83.6365 89.0007 84.7471 89.8093C85.2714 90.1826 85.831 90.467 86.382 90.1026C86.5773 89.9782 86.8083 89.7473 86.9683 89.5429C87.5104 88.8407 87.9012 88.0054 88.1944 87.1435C88.3011 86.8324 88.6654 85.3483 88.7543 85.2328C88.7365 85.0375 88.7987 84.8153 88.834 84.6108L88.9584 83.6956L89.0384 83.1C88.9673 82.9489 89.0295 82.1581 89.0384 81.9181C89.0117 81.687 88.9673 81.3495 89.0206 81.1362L88.9318 80.6385C88.8429 79.981 88.7187 79.6699 88.6476 79.2079C88.5499 79.1102 88.5232 78.9235 88.4699 78.7991C88.4077 78.648 88.3455 78.5235 88.2477 78.3902C88.0967 78.1591 87.8923 77.9105 87.4748 77.8394C87.1016 77.8127 86.8705 77.8838 86.5417 77.9105H86.5595ZM78.5987 86.0149L79.123 86.0327C79.4427 86.0505 79.816 86.0061 80.1003 85.9083C80.5269 85.7661 80.5625 85.7572 80.5091 85.3216C80.4469 84.6997 80.4647 83.9 80.5269 83.2511L80.6244 82.4248C80.6511 82.2648 80.6777 82.1137 80.7044 81.9537C80.731 81.8293 80.7577 81.6248 80.8377 81.5184C80.811 81.2873 81.0954 81.154 80.0204 80.7807C79.0697 80.4518 78.341 80.221 77.7992 81.0562C77.1771 82.0159 76.6797 83.6245 76.6619 84.7797C76.653 85.375 76.6708 85.4461 77.2126 85.6772C77.6747 85.8727 78.0835 85.9438 78.5987 86.0061V86.0149ZM71.3131 76.5419C71.1712 76.8175 70.9756 77.0838 70.8246 77.3861C70.7179 77.5816 70.478 78.1591 70.3802 78.2746C70.3713 78.5057 70.2025 78.8524 70.1225 79.0657C70.0428 79.3321 69.9184 79.981 69.7851 80.141L69.6784 80.7451L69.5362 81.607C69.5007 81.8292 69.5096 82.0959 69.4207 82.2915C69.4651 82.407 69.394 83.1623 69.3852 83.3489C69.3852 83.5889 69.4118 83.9178 69.3496 84.1575C69.4118 84.2642 69.4651 85.3305 69.5007 85.5794C69.6162 86.2902 69.8739 87.4899 70.5402 87.881C71.3842 88.3788 73.5079 87.2324 74.2008 86.7613C74.6984 86.4236 75.8268 85.7572 76.1909 85.3216C76.102 84.8508 76.1198 84.4953 76.1998 83.9886C75.6846 84.0242 75.2669 84.0864 74.6984 84.0864C74.2008 84.0864 73.6409 84.042 73.1702 84.042C73.6231 84.0064 75.9954 83.7045 76.2531 83.5534L76.6619 82.1937L74.023 80.3365C74.9026 80.5318 76.0309 81.3762 76.8841 81.7226C77.2571 80.7185 77.6303 80.8251 77.4526 80.3987C77.1682 79.6965 76.5197 78.6391 76.0487 78.0969C75.4447 77.4127 75.2314 77.1105 74.4674 76.4619C74.3074 76.3197 73.8542 76.0442 73.7387 75.9197C73.4545 75.7953 73.2057 75.6533 72.868 75.5733C72.4326 75.5111 72.1662 75.7067 71.944 75.8842C71.8107 75.9908 71.7219 76.0886 71.6152 76.213C71.5441 76.3019 71.4553 76.4619 71.3486 76.5241L71.3131 76.5419Z" fill="black"/>
<path fill-rule="evenodd" clip-rule="evenodd" d="M68.5322 61.808L68.5855 61.8169L68.6388 61.8257L68.6832 61.8346H68.6921L68.7454 61.8435L68.7988 61.8524H68.8343H68.8521L68.9054 61.8613L68.9587 61.8702L69.0121 61.8791L69.0654 61.888L69.1187 61.8969H69.1365H69.1631L69.2165 61.9057L69.2698 61.9146H69.2787H69.3142L69.3584 61.9235L69.4028 61.9324H69.4472H69.4917H69.5361H69.5805H69.625L69.7138 61.9413H69.7583H69.7849H69.8027H69.8472H69.8916H69.9094H69.936H69.9805H70.0249H70.0338H70.0604H70.1049H70.1493H70.1937H70.2382H70.2737H70.3182H70.3537H70.3893H70.3981H70.4337H70.4692H70.4956H70.5045H70.5401H70.62H70.6556H70.6911H70.7H70.7267H70.7622C70.8866 61.9502 71.0022 61.9502 71.1177 61.9502H71.1533H71.1888H71.2066H71.2244H71.2599C72.6016 61.9591 73.5788 61.7458 75.6934 61.2749C78.9985 60.5461 82.8546 58.4489 85.689 56.7073C86.7196 56.0762 87.6169 55.3387 88.5409 54.7699L89.2782 57.0537L89.2163 57.1159L89.2074 57.1248L89.1985 57.1337L89.1274 57.1959L89.0563 57.2581L89.0385 57.2759L89.0297 57.2848L88.9763 57.3292L88.9497 57.3559L88.9408 57.3648L88.923 57.3825L88.8964 57.4092L88.843 57.4537L88.8075 57.4803L88.7719 57.507L88.7364 57.5337L88.7186 57.5425L88.7008 57.5603L88.6653 57.587L88.6297 57.6137L88.5942 57.6403L88.5587 57.667L88.5231 57.6936L88.4876 57.7203L88.452 57.747L88.4165 57.7736L88.3809 57.8003L88.3454 57.827H88.3365L88.3009 57.8536L88.2654 57.8803L88.2298 57.907L88.2032 57.9248L88.1943 57.9336L88.1587 57.9603L88.1143 57.9867L88.0699 58.0134L88.0613 58.0223L88.0346 58.04L87.9902 58.0667L87.9457 58.0934L87.9102 58.12H87.9013L87.8569 58.1467L87.8124 58.1734L87.768 58.2L87.7502 58.2089L87.7236 58.2267L87.6791 58.2534L87.6347 58.28L87.5903 58.3067L87.5458 58.3334L87.5014 58.36L87.457 58.3867L87.4303 58.4045L87.4125 58.4134L87.3681 58.44L87.3236 58.4667L87.2792 58.5022H87.2703L87.2259 58.5289L87.1815 58.5556L87.137 58.5911L87.1015 58.6178L87.0837 58.6267L86.9859 58.6889L86.9326 58.7245C84.1963 60.4661 80.1802 62.6613 78.8741 63.2565C77.2217 64.0118 74.2984 65.3181 71.8995 65.3537H71.8906H71.8195H71.7751H71.7306H71.6595H71.6507H71.6065H71.5621H71.5176H71.4732H71.4288H71.3843H71.3488L71.2599 65.3448L71.1977 65.3359H71.1888H71.1533H71.1177L71.0822 65.327L71.0466 65.3181L70.9755 65.3093L70.94 65.3004L70.8511 65.2826L70.8156 65.2737H70.7978L70.6911 65.2559L70.6556 65.247L70.5578 65.2204H70.5401L70.5223 65.2115L70.4159 65.1848C70.3715 65.1759 70.3359 65.1581 70.2915 65.1493H70.2826H70.2737C70.1937 65.1226 70.1138 65.087 70.0338 65.0604H70.0249H70.016C69.9805 65.0426 69.936 65.0248 69.9005 65.0073C69.8649 64.9895 69.8294 64.9718 69.7849 64.954H69.7761L69.7672 64.9451C69.7316 64.9273 69.705 64.9095 69.6694 64.8918L69.6605 64.8829H69.6516C69.6161 64.8651 69.5805 64.8384 69.545 64.8118C68.621 64.2073 68.8254 63.5143 68.5588 61.7369L68.5322 61.808ZM87.6614 61.6924C87.8035 63.3899 87.3414 65.087 86.2575 66.7756C84.9692 68.7928 83.3345 70.0013 81.3441 70.4458C79.8603 70.7746 78.4389 70.7035 77.0439 70.268C75.6756 69.8324 74.485 69.1039 73.4989 68.0819C73.3033 67.8775 73.1256 67.6642 72.9568 67.4509C69.9805 68.0286 67.0572 68.0997 64.7027 67.1222C62.0197 65.9937 61.9041 63.8518 63.2991 61.8257C64.9871 59.373 67.1283 58.5733 67.9814 57.8181C67.7948 56.6717 67.2883 53.8724 67.3149 52.8949C67.3416 51.8551 68.1589 49.9534 68.5944 49.3403C70.5667 46.541 75.6401 45.8212 78.9185 46.1678C79.9936 46.2833 79.9047 46.5499 80.8201 45.9367C82.1439 45.0481 83.6808 44.7993 84.7736 45.5813C85.8576 46.3544 86.2575 47.7851 86.7463 49.3492C87.217 50.8599 87.7324 52.3705 88.2121 53.899C89.4204 53.8724 90.6554 53.8013 91.8815 53.7302C92.9477 53.6679 94.6626 53.3657 95.0092 54.4412C95.5244 56.0229 92.3881 58.3067 91.2686 59.1864C90.0514 60.1463 88.8786 60.9638 87.6525 61.7102L87.6614 61.6924Z" fill="black"/>
</g>
<defs>
<clipPath id="clip0_4238_123">
<rect width="107.72" height="107.74" fill="white" transform="translate(17 25)"/>
</clipPath>
</defs>
</svg>
